<svg width="43" height="43" viewBox="0 0 43 43" fill="none" xmlns="http://www.w3.org/2000/svg">
<path d="M17.9261 2.87506C9.61738 2.87506 2.88184 9.61061 2.88184 17.9194C2.88184 26.2281 9.61738 32.9636 17.9261 32.9636C26.2349 32.9636 32.9704 26.2281 32.9704 17.9194C32.9614 9.61437 26.2311 2.88411 17.9261 2.87506ZM17.9261 4.30785C22.3513 4.31134 26.4981 6.46805 29.0417 10.0892L27.2507 11.8801C26.8149 11.6164 26.3159 11.4753 25.8065 11.4718C24.2239 11.4718 22.9409 12.7548 22.9409 14.3374C22.9434 14.8474 23.0837 15.3471 23.3471 15.7838L18.6561 20.4747C17.7679 19.9331 16.6516 19.9331 15.7633 20.4747L12.5052 17.2166C12.7685 16.7799 12.9089 16.2802 12.9114 15.7702C12.9133 14.1907 11.6346 12.9087 10.0551 12.9067C8.74884 12.9051 7.60754 13.7887 7.28193 15.0538H4.62411C5.98051 8.79007 11.5173 4.31725 17.9261 4.30785ZM27.2393 14.3374C27.2393 15.1287 26.5978 15.7702 25.8065 15.7702C25.0151 15.7702 24.3737 15.1287 24.3737 14.3374C24.3737 13.546 25.0151 12.9046 25.8065 12.9046C26.5978 12.9046 27.2393 13.546 27.2393 14.3374ZM18.6425 22.9341C18.6425 23.7255 18.0011 24.3669 17.2097 24.3669C16.4184 24.3669 15.7769 23.7255 15.7769 22.9341C15.7769 22.1428 16.4184 21.5013 17.2097 21.5013C18.0011 21.5013 18.6425 22.1428 18.6425 22.9341ZM11.4786 15.7702C11.4786 16.5615 10.8371 17.203 10.0458 17.203C9.25444 17.203 8.613 16.5615 8.613 15.7702C8.613 14.9788 9.25444 14.3374 10.0458 14.3374C10.8371 14.3374 11.4786 14.9788 11.4786 15.7702ZM24.5397 29.821C22.5166 30.9443 20.2403 31.5328 17.9261 31.5308C10.4138 31.5359 4.31973 25.4502 4.31463 17.9379C4.31427 17.4531 4.33988 16.9685 4.39128 16.4865H7.28193C7.60762 17.7478 8.74311 18.6307 10.0458 18.6357C10.5558 18.6332 11.0555 18.4928 11.4922 18.2295L14.7504 21.4876C14.487 21.9243 14.3467 22.424 14.3442 22.934C14.3442 24.5166 15.6271 25.7996 17.2097 25.7996C18.7923 25.7996 20.0753 24.5166 20.0753 22.934C20.0728 22.424 19.9325 21.9243 19.6691 21.4876L24.3601 16.7967C24.7967 17.06 25.2965 17.2004 25.8065 17.2029C27.3891 17.2029 28.6721 15.9199 28.6721 14.3373C28.6695 13.8273 28.5292 13.3275 28.2659 12.8909L29.8276 11.3299C33.4736 17.8963 31.1061 26.1751 24.5397 29.821Z" fill="white"/>
<path d="M35.836 7.17354C37.1387 7.16862 38.2742 6.28575 38.5999 5.02436H43V3.59157H38.5999C38.2742 2.33018 37.1387 1.44731 35.836 1.44238C34.2534 1.44238 32.9704 2.72536 32.9704 4.30796C32.9729 4.81795 33.1133 5.31772 33.3766 5.75436L32.1179 7.01307C26.0953 -0.833333 14.8522 -2.31179 7.00578 3.71085C-0.840627 9.73349 -2.31909 20.9767 3.70356 28.8231C9.38851 36.2294 19.8095 38.0261 27.6462 32.9509L29.8083 35.1129L30.8213 36.1259L36.5882 41.8929C38.055 43.3596 40.4329 43.3596 41.8996 41.8929C43.3663 40.4262 43.3663 38.0483 41.8996 36.5816L36.1326 30.8146L35.1196 29.8016L32.9575 27.6395C36.7955 21.7278 36.7955 14.1112 32.9575 8.19942L34.3903 6.76663C34.8267 7.03008 35.3263 7.17068 35.836 7.17354ZM35.836 2.87517C36.6274 2.87517 37.2688 3.51662 37.2688 4.30796C37.2688 5.09931 36.6274 5.74075 35.836 5.74075C35.0447 5.74075 34.4032 5.09931 34.4032 4.30796C34.4032 3.51662 35.0448 2.87517 35.836 2.87517ZM40.8866 37.5945C41.8041 38.4915 41.8209 39.9624 40.9239 40.8799C40.027 41.7974 38.5561 41.8142 37.6386 40.9173C37.6259 40.905 37.6136 40.8925 37.6012 40.8799L31.8342 35.1129L35.1196 31.8276L40.8866 37.5945ZM34.1066 30.8146L30.8213 34.1L28.8383 32.117C28.9393 32.0396 29.0339 31.9544 29.1334 31.8748C29.233 31.7953 29.3483 31.7 29.4551 31.6105C29.612 31.4787 29.7667 31.3454 29.9186 31.2086C29.9967 31.137 30.0712 31.0653 30.1478 30.9937C30.4416 30.7186 30.726 30.4342 31.0011 30.1404C31.0727 30.0638 31.1444 29.9893 31.216 29.9112C31.3528 29.7593 31.4861 29.6046 31.6179 29.4477C31.7077 29.3417 31.7958 29.2345 31.8822 29.126C31.961 29.0272 32.0463 28.9326 32.1237 28.8316L34.1066 30.8146ZM31.3285 27.4869C31.1028 27.8021 30.87 28.1109 30.6242 28.4082C30.5526 28.4949 30.476 28.5787 30.4022 28.664C30.1829 28.919 29.9566 29.1664 29.723 29.4061C29.6213 29.5112 29.5179 29.6146 29.4128 29.7163C29.174 29.9499 28.9267 30.1763 28.6706 30.3955C28.5854 30.4671 28.5016 30.5452 28.4149 30.6176C28.1176 30.8633 27.8088 31.0961 27.4936 31.3218C20.0775 36.62 9.77044 34.903 4.47225 27.4869C-0.825941 20.0708 0.890989 9.76376 8.30711 4.46557C15.7232 -0.832617 26.0303 0.884223 31.3285 8.30043C35.4281 14.0389 35.4281 21.7484 31.3285 27.4869Z" fill="white"/>
</svg>
