<svg width="43" height="43" viewBox="0 0 43 43" fill="none" xmlns="http://www.w3.org/2000/svg">
<path d="M31.2666 4.26288H2.42136C1.08617 4.26288 0 5.34905 0 6.68415V23.9897C0 25.3248 1.08617 26.411 2.42136 26.411H4.29178V32.8535C4.29178 33.2637 4.53886 33.6336 4.91797 33.7907C5.04344 33.8427 5.1753 33.8679 5.30598 33.8679C5.57002 33.8679 5.82937 33.7648 6.02346 33.5708L13.1832 26.4111H14.6197C15.18 26.4111 15.6341 25.957 15.6341 25.3967C15.6341 24.8364 15.1798 24.3823 14.6197 24.3823C14.6197 24.3823 12.7141 24.3836 12.6942 24.3857C12.458 24.4017 12.2262 24.499 12.0457 24.6794L6.32051 30.4046C6.32051 30.4046 6.31874 25.3326 6.31547 25.3063C6.2697 24.7884 5.83533 24.3823 5.30564 24.3823H2.42136C2.20485 24.3823 2.02881 24.2062 2.02881 23.9898V6.68415C2.02881 6.46764 2.20493 6.29161 2.42136 6.29161H31.2666C31.4831 6.29161 31.6591 6.46772 31.6591 6.68415V13.3236C31.6591 13.8838 32.1134 14.3379 32.6735 14.3379C33.2336 14.3379 33.6879 13.8838 33.6879 13.3236V6.68415C33.6879 5.34905 32.6017 4.26288 31.2666 4.26288Z" fill="white"/>
<path d="M40.5783 16.6703H20.3872C19.0521 16.6703 17.9658 17.7565 17.9658 19.0916V30.8974C17.9658 32.2325 19.052 33.3187 20.3872 33.3187H33.028L38.1494 38.4401C38.3435 38.6342 38.6029 38.7372 38.8669 38.7372C38.9976 38.7372 39.1294 38.7119 39.2549 38.66C39.6338 38.5029 39.8811 38.1331 39.8811 37.7228V33.3186H40.5782C41.9133 33.3186 42.9996 32.2325 42.9996 30.8973V19.0916C42.9997 17.7565 41.9135 16.6703 40.5783 16.6703ZM40.9709 30.8974C40.9709 31.1138 40.7948 31.2899 40.5784 31.2899H38.8671C38.3333 31.2899 37.8968 31.7024 37.8567 32.2261C37.8541 32.2482 37.8524 35.2739 37.8524 35.2739L34.1694 31.5907C34.1655 31.5869 34.1615 31.5833 34.1576 31.5794C34.1432 31.5653 34.1295 31.553 34.1165 31.542C33.938 31.3855 33.7048 31.2898 33.4488 31.2898H20.3872C20.1707 31.2898 19.9946 31.1137 19.9946 30.8973V19.0916C19.9946 18.875 20.1707 18.699 20.3872 18.699H40.5784C40.7948 18.699 40.9709 18.8751 40.9709 19.0916V30.8974V30.8974Z" fill="white"/>
<path d="M30.4831 23.9801C29.9232 23.9801 29.4688 24.4345 29.4688 24.9945C29.4688 25.5544 29.9232 26.0088 30.4831 26.0088C31.0431 26.0088 31.4975 25.5544 31.4975 24.9945C31.4975 24.4345 31.043 23.9801 30.4831 23.9801Z" fill="white"/>
<path d="M26.0746 10.9693H7.613C7.05282 10.9693 6.59863 11.4234 6.59863 11.9837C6.59863 12.5439 7.05291 12.998 7.613 12.998H26.0746C26.6348 12.998 27.089 12.5439 27.089 11.9837C27.089 11.4234 26.6348 10.9693 26.0746 10.9693Z" fill="white"/>
<path d="M14.6194 17.6758H7.613C7.05282 17.6758 6.59863 18.1299 6.59863 18.6901C6.59863 19.2504 7.05291 19.7045 7.613 19.7045H14.6194C15.1797 19.7045 15.6338 19.2504 15.6338 18.6901C15.6338 18.1299 15.1796 17.6758 14.6194 17.6758Z" fill="white"/>
<path d="M25.7692 23.9801C25.2094 23.9801 24.7549 24.4345 24.7549 24.9945C24.7549 25.5544 25.2094 26.0088 25.7692 26.0088C26.3293 26.0088 26.7836 25.5544 26.7836 24.9945C26.7836 24.4345 26.3293 23.9801 25.7692 23.9801Z" fill="white"/>
<path d="M35.196 23.9801C34.6361 23.9801 34.1816 24.4345 34.1816 24.9945C34.1816 25.5544 34.6361 26.0088 35.196 26.0088C35.756 26.0088 36.2104 25.5544 36.2104 24.9945C36.2104 24.4345 35.7559 23.9801 35.196 23.9801Z" fill="white"/>
</svg>
