<svg width="28" height="28" viewBox="0 0 28 28" fill="none" xmlns="http://www.w3.org/2000/svg">
<g clip-path="url(#clip0)">
<path d="M11.6728 1.87213C6.2624 1.87213 1.87646 6.25807 1.87646 11.6684C1.87646 17.0788 6.2624 21.4647 11.6728 21.4647C17.0831 21.4647 21.469 17.0788 21.469 11.6684C21.4631 6.26052 17.0806 1.87802 11.6728 1.87213ZM11.6728 2.80511C14.5543 2.80738 17.2545 4.21175 18.9108 6.56968L17.7446 7.73591C17.4608 7.56418 17.1359 7.47228 16.8041 7.47001C15.7736 7.47001 14.9382 8.30543 14.9382 9.33597C14.9398 9.66805 15.0312 9.99348 15.2027 10.2778L12.1481 13.3324C11.5697 12.9797 10.8428 12.9797 10.2644 13.3324L8.14282 11.2108C8.31432 10.9265 8.40569 10.601 8.40732 10.2689C8.40861 9.24045 7.57592 8.40567 6.54743 8.40439C5.69684 8.40334 4.95366 8.97869 4.74165 9.80246H3.01097C3.89421 5.72376 7.49953 2.81123 11.6728 2.80511ZM17.7371 9.33597C17.7371 9.85126 17.3194 10.2689 16.8041 10.2689C16.2888 10.2689 15.8712 9.85126 15.8712 9.33597C15.8712 8.82067 16.2888 8.40299 16.8041 8.40299C17.3194 8.40299 17.7371 8.82067 17.7371 9.33597ZM12.1392 14.9338C12.1392 15.4491 11.7216 15.8668 11.2063 15.8668C10.691 15.8668 10.2733 15.4491 10.2733 14.9338C10.2733 14.4185 10.691 14.0009 11.2063 14.0009C11.7216 14.0009 12.1392 14.4185 12.1392 14.9338ZM7.47434 10.2689C7.47434 10.7842 7.05666 11.2019 6.54136 11.2019C6.02607 11.2019 5.60838 10.7842 5.60838 10.2689C5.60838 9.75365 6.02607 9.33597 6.54136 9.33597C7.05666 9.33597 7.47434 9.75365 7.47434 10.2689ZM15.9793 19.4183C14.6619 20.1498 13.1796 20.533 11.6728 20.5317C6.78102 20.535 2.81277 16.5722 2.80944 11.6805C2.80921 11.3648 2.82589 11.0493 2.85936 10.7354H4.74165C4.95372 11.5567 5.69311 12.1316 6.54136 12.1348C6.87345 12.1332 7.19888 12.0418 7.48321 11.8703L9.6048 13.9919C9.43331 14.2763 9.34193 14.6017 9.3403 14.9338C9.3403 15.9643 10.1757 16.7997 11.2063 16.7997C12.2368 16.7997 13.0722 15.9643 13.0722 14.9338C13.0706 14.6017 12.9792 14.2763 12.8077 13.9919L15.8623 10.9374C16.1466 11.1089 16.4721 11.2002 16.8041 11.2019C17.8347 11.2019 18.6701 10.3664 18.6701 9.33591C18.6685 9.00383 18.5771 8.67839 18.4056 8.39407L19.4225 7.37759C21.7967 11.6534 20.2551 17.0442 15.9793 19.4183Z" fill="white"/>
<path d="M23.3351 4.67268C24.1833 4.66947 24.9227 4.09458 25.1348 3.27321H28V2.34023H25.1348C24.9227 1.51886 24.1833 0.943971 23.3351 0.940764C22.3046 0.940764 21.4691 1.77619 21.4691 2.80672C21.4708 3.1388 21.5621 3.46424 21.7336 3.74857L20.914 4.56819C16.9923 -0.541099 9.67119 -1.50382 4.5619 2.4179C-0.547385 6.33962 -1.5101 13.6608 2.41162 18.7701C6.11345 23.5928 12.8992 24.7627 18.0022 21.4579L19.41 22.8658L20.0697 23.5254L23.8249 27.2806C24.78 28.2357 26.3284 28.2357 27.2835 27.2806C28.2385 26.3256 28.2385 24.7772 27.2835 23.8221L23.5282 20.0668L22.8686 19.4072L21.4607 17.9994C23.9599 14.1499 23.9599 9.19022 21.4607 5.34069L22.3937 4.40771C22.6779 4.57927 23.0032 4.67082 23.3351 4.67268ZM23.3351 1.87374C23.8504 1.87374 24.2681 2.29143 24.2681 2.80672C24.2681 3.32202 23.8504 3.7397 23.3351 3.7397C22.8198 3.7397 22.4021 3.32202 22.4021 2.80672C22.4021 2.29143 22.8198 1.87374 23.3351 1.87374ZM26.6238 24.4817C27.2213 25.0657 27.2322 26.0236 26.6482 26.621C26.0641 27.2185 25.1063 27.2294 24.5088 26.6453C24.5006 26.6373 24.4926 26.6292 24.4845 26.621L20.7293 22.8658L22.8686 20.7265L26.6238 24.4817ZM22.209 20.0668L20.0697 22.2062L18.7784 20.9149C18.8442 20.8645 18.9058 20.809 18.9706 20.7572C19.0354 20.7055 19.1106 20.6434 19.1801 20.5851C19.2822 20.4993 19.383 20.4125 19.4819 20.3234C19.5327 20.2768 19.5812 20.2301 19.6312 20.1835C19.8224 20.0043 20.0076 19.8191 20.1867 19.6279C20.2334 19.578 20.28 19.5294 20.3267 19.4786C20.4158 19.3797 20.5026 19.2789 20.5884 19.1768C20.6469 19.1077 20.7043 19.0379 20.7605 18.9673C20.8118 18.9029 20.8674 18.8414 20.9177 18.7756L22.209 20.0668ZM20.3999 17.9C20.253 18.1053 20.1014 18.3063 19.9414 18.4999C19.8947 18.5563 19.8448 18.6109 19.7968 18.6664C19.654 18.8325 19.5066 18.9936 19.3545 19.1497C19.2883 19.2181 19.2209 19.2855 19.1525 19.3517C18.997 19.5038 18.836 19.6512 18.6693 19.7939C18.6137 19.8406 18.5592 19.8914 18.5027 19.9386C18.3091 20.0986 18.1081 20.2502 17.9028 20.3971C13.0737 23.8471 6.36215 22.7291 2.91216 17.9C-0.537822 13.0709 0.580179 6.35933 5.40928 2.90935C10.2384 -0.540632 16.9499 0.57731 20.3999 5.40647C23.0695 9.14317 23.0695 14.1633 20.3999 17.9Z" fill="white"/>
</g>
<defs>
<clipPath id="clip0">
<rect width="28" height="28" fill="white"/>
</clipPath>
</defs>
</svg>
