<svg width="14" height="14" viewBox="0 0 14 14" fill="none" xmlns="http://www.w3.org/2000/svg">
<g clip-path="url(#clip0)">
<path d="M9.69231 9.56262V11.3751C9.69231 11.9318 9.23946 12.3847 8.68269 12.3847H2.625C2.06823 12.3847 1.61538 11.9318 1.61538 11.3751V5.31738C1.61538 4.76061 2.06823 4.30777 2.625 4.30777H4.47138L6.08731 2.69238H2.625C1.17492 2.69238 0 3.86731 0 5.31738V11.3751C0 12.8252 1.17492 14.0001 2.625 14.0001H8.68269C10.1328 14.0001 11.3077 12.8252 11.3077 11.3751V7.94669L9.69231 9.56262Z" fill="#53D470"/>
<path d="M12.1589 2.81567e-05H6.6348C5.61926 0.00110508 5.6898 0.274644 6.22557 0.809874L7.95941 2.54372L4.9871 5.51549C4.37057 6.13149 4.3711 7.1298 4.9871 7.74526L6.2848 9.04349C6.9008 9.65787 7.89803 9.65841 8.51403 9.04295L11.4863 6.07064L13.1879 7.77218C13.7807 8.36449 13.9993 8.38011 13.9993 7.36457L13.9999 1.84103C13.9993 -0.00966426 14.0128 -0.000510305 12.1589 2.81567e-05Z" fill="#53D470"/>
</g>
<defs>
<clipPath id="clip0">
<rect width="14" height="14" fill="white"/>
</clipPath>
</defs>
</svg>
