<?xml version="1.0" encoding="utf-8"?>
<!-- Generator: Adobe Illustrator 24.0.0, SVG Export Plug-In . SVG Version: 6.00 Build 0)  -->
<svg version="1.1" id="Capa_1" xmlns="http://www.w3.org/2000/svg" xmlns:xlink="http://www.w3.org/1999/xlink" x="0px" y="0px"
	 viewBox="0 0 65 62" style="enable-background:new 0 0 65 62;" xml:space="preserve">
<style type="text/css">
	.st0{clip-path:url(#SVGID_2_);}
	.st1{fill:#FFD15C;}
	.st2{fill:#ACB3BA;}
	.st3{fill:#CDD6E0;}
	.st4{fill:#54C0EB;}
	.st5{fill:#84DBFF;}
	.st6{fill:#F8B64C;}
	.st7{fill:#F1543F;}
	.st8{fill:#FF7058;}
</style>
<g>
	<defs>
		<rect id="SVGID_1_" x="2" y="0.2" width="61.8" height="61.8"/>
	</defs>
	<clipPath id="SVGID_2_">
		<use xlink:href="#SVGID_1_"  style="overflow:visible;"/>
	</clipPath>
	<g class="st0">
		<path class="st1" d="M24.4,25.3c-0.8,1.2-1.3,2.5-1.6,3.7H2c0.4-7,3.2-13.4,7.6-18.5L24.4,25.3z"/>
		<path class="st2" d="M22.8,33c0.3,1.4,0.8,2.7,1.6,3.7L9.6,51.7C5.2,46.6,2.4,40.1,2,33H22.8z"/>
		<path class="st3" d="M27.1,39.6c1.2,0.8,2.5,1.3,3.7,1.6V62c-7-0.4-13.4-3.2-18.5-7.6L27.1,39.6z"/>
		<path class="st4" d="M34.8,62V41.2c1.4-0.3,2.7-0.8,3.7-1.6l14.9,14.7C48.4,58.8,42,61.6,34.8,62z"/>
		<path class="st5" d="M41.4,36.9c0.8-1.2,1.3-2.5,1.6-3.7h20.8c-0.4,7-3.2,13.4-7.6,18.5L41.4,36.9z"/>
		<path class="st6" d="M31,21c-1.4,0.3-2.7,0.8-3.7,1.6L12.3,7.8c5-4.4,11.5-7.2,18.5-7.6V21H31z"/>
		<path class="st7" d="M43,29.2c-0.3-1.4-0.8-2.7-1.6-3.7l14.7-14.9c4.4,5,7.2,11.5,7.6,18.5H43V29.2z"/>
		<path class="st8" d="M38.7,22.6c-1.2-0.8-2.5-1.3-3.7-1.6V0.2c7,0.4,13.4,3.2,18.5,7.6L38.7,22.6z"/>
	</g>
</g>
</svg>
