<?xml version="1.0" encoding="utf-8"?>
<!-- Generator: Adobe Illustrator 24.0.0, SVG Export Plug-In . SVG Version: 6.00 Build 0)  -->
<svg version="1.1" id="Capa_1" xmlns="http://www.w3.org/2000/svg" xmlns:xlink="http://www.w3.org/1999/xlink" x="0px" y="0px"
	 viewBox="0 0 65 62" style="enable-background:new 0 0 65 62;" xml:space="preserve">
<style type="text/css">
	.st0{fill:#FFFFFF;}
</style>
<path class="st0" d="M32.9,0c-0.8,0-1.6,0.2-2.3,0.6h0L6.2,13.1c-0.9,0.4-1.6,1.3-1.6,2.4c0,1.1,0.7,2,1.6,2.4v0.1l24.4,12.5l0,0
	c0.7,0.4,1.5,0.6,2.3,0.6c0.8,0,1.6-0.2,2.3-0.6l0,0l24.4-12.5v-0.1c0.9-0.4,1.6-1.3,1.6-2.4c0-1.1-0.7-2-1.6-2.4L35.3,0.6h0
	C34.5,0.2,33.7,0,32.9,0z M11,26.1l-4.8,2.4c-0.9,0.4-1.6,1.3-1.6,2.4c0,1.1,0.7,2,1.6,2.4v0.1l24.4,12.5l0,0
	c0.7,0.4,1.5,0.6,2.3,0.6c0.8,0,1.6-0.2,2.3-0.6l0,0l24.4-12.5v-0.1c0.9-0.4,1.6-1.3,1.6-2.4c0-1.1-0.7-2-1.6-2.4l-4.8-2.4
	c-7.5,3.8-17.7,9-17.8,9.1c-1.3,0.6-2.7,0.9-4.1,0.9c-1.4,0-2.8-0.3-4.2-0.9C28.6,35.1,18.4,29.9,11,26.1z M11,41.5L6.2,44
	c-0.9,0.4-1.6,1.3-1.6,2.4c0,1.1,0.7,2,1.6,2.4v0.1l24.4,12.5l0,0c0.7,0.4,1.5,0.6,2.3,0.6c0.8,0,1.6-0.2,2.3-0.6l0,0l24.4-12.5
	v-0.1c0.9-0.4,1.6-1.3,1.6-2.4c0-1.1-0.7-2-1.6-2.4l-4.8-2.4c-7.5,3.8-17.7,9-17.8,9.1c-1.3,0.6-2.7,0.9-4.1,0.9
	c-1.4,0-2.8-0.3-4.2-0.9C28.6,50.6,18.4,45.4,11,41.5z"/>
</svg>
