<?xml version="1.0" encoding="utf-8"?>
<!-- Generator: Adobe Illustrator 24.0.0, SVG Export Plug-In . SVG Version: 6.00 Build 0)  -->
<svg version="1.1" id="Capa_1" xmlns="http://www.w3.org/2000/svg" xmlns:xlink="http://www.w3.org/1999/xlink" x="0px" y="0px"
	 viewBox="0 0 65 62" style="enable-background:new 0 0 65 62;" xml:space="preserve">
<style type="text/css">
	.st0{fill:#FFFFFF;}
</style>
<path class="st0" d="M28.8,52.8v-44c0-0.8-0.7-1.4-1.5-1.4h-9.1c-0.8,0-1.5,0.7-1.5,1.4v44c0,0.8,0.7,1.5,1.5,1.5h9
	C28.2,54.3,28.8,53.6,28.8,52.8z"/>
<path class="st0" d="M47.5,7.3h-9.1c-0.8,0-1.5,0.7-1.5,1.4v44c0,0.8,0.7,1.5,1.5,1.5h9c0.8,0,1.5-0.7,1.5-1.5v-44
	C49.1,8,48.4,7.3,47.5,7.3z"/>
</svg>
