<?xml version="1.0" encoding="utf-8"?>
<!-- Generator: Adobe Illustrator 24.0.0, SVG Export Plug-In . SVG Version: 6.00 Build 0)  -->
<svg version="1.1" id="Capa_1" xmlns="http://www.w3.org/2000/svg" xmlns:xlink="http://www.w3.org/1999/xlink" x="0px" y="0px"
	 viewBox="0 0 65 62" style="enable-background:new 0 0 65 62;" xml:space="preserve">
<style type="text/css">
	.st0{clip-path:url(#SVGID_2_);}
	.st1{fill:#FFFFFF;}
</style>
<g>
	<defs>
		<rect id="SVGID_1_" x="1.7" width="62" height="62"/>
	</defs>
	<clipPath id="SVGID_2_">
		<use xlink:href="#SVGID_1_"  style="overflow:visible;"/>
	</clipPath>
	<g class="st0">
		<path class="st1" d="M21.1,2.6h-5.2c-0.7,0-1.3,0.6-1.3,1.3c0,0.7,0.6,1.3,1.3,1.3h5.2c0.7,0,1.3-0.6,1.3-1.3
			C22.3,3.2,21.8,2.6,21.1,2.6z"/>
		<path class="st1" d="M36.6,2.6h-5.2c-0.7,0-1.3,0.6-1.3,1.3c0,0.7,0.6,1.3,1.3,1.3h5.2c0.7,0,1.3-0.6,1.3-1.3
			C37.8,3.2,37.3,2.6,36.6,2.6z"/>
		<path class="st1" d="M21.1,42.6h-5.2c-0.7,0-1.3,0.6-1.3,1.3c0,0.7,0.6,1.3,1.3,1.3h5.2c0.7,0,1.3-0.6,1.3-1.3
			C22.3,43.2,21.8,42.6,21.1,42.6z"/>
		<path class="st1" d="M36.6,42.6h-5.2c-0.7,0-1.3,0.6-1.3,1.3c0,0.7,0.6,1.3,1.3,1.3h5.2c0.7,0,1.3-0.6,1.3-1.3
			C37.8,43.2,37.3,42.6,36.6,42.6z"/>
		<path class="st1" d="M5.6,28.4c-0.7,0-1.3,0.6-1.3,1.3v5.2c0,0.7,0.6,1.3,1.3,1.3c0.7,0,1.3-0.6,1.3-1.3v-5.2
			C6.8,29,6.3,28.4,5.6,28.4z"/>
		<path class="st1" d="M5.6,12.9c-0.7,0-1.3,0.6-1.3,1.3v5.2c0,0.7,0.6,1.3,1.3,1.3c0.7,0,1.3-0.6,1.3-1.3v-5.2
			C6.8,13.5,6.3,12.9,5.6,12.9z"/>
		<path class="st1" d="M46.9,28.4c-0.7,0-1.3,0.6-1.3,1.3v5.2c0,0.7,0.6,1.3,1.3,1.3s1.3-0.6,1.3-1.3v-5.2
			C48.2,29,47.6,28.4,46.9,28.4z"/>
		<path class="st1" d="M46.9,12.9c-0.7,0-1.3,0.6-1.3,1.3v5.2c0,0.7,0.6,1.3,1.3,1.3s1.3-0.6,1.3-1.3v-5.2
			C48.2,13.5,47.6,12.9,46.9,12.9z"/>
		<path class="st1" d="M49.5,0h-5.2C43.6,0,43,0.6,43,1.3v5.2c0,0.7,0.6,1.3,1.3,1.3h5.2c0.7,0,1.3-0.6,1.3-1.3V1.3
			C50.8,0.6,50.2,0,49.5,0z"/>
		<path class="st1" d="M8.1,0H3C2.3,0,1.7,0.6,1.7,1.3v5.2c0,0.7,0.6,1.3,1.3,1.3h5.2c0.7,0,1.3-0.6,1.3-1.3V1.3
			C9.4,0.6,8.9,0,8.1,0z"/>
		<path class="st1" d="M8.1,40H3c-0.7,0-1.3,0.6-1.3,1.3v5.2c0,0.7,0.6,1.3,1.3,1.3h5.2c0.7,0,1.3-0.6,1.3-1.3v-5.2
			C9.4,40.6,8.9,40,8.1,40z"/>
		<path class="st1" d="M63,46.7L39.8,33.7c-0.5-0.3-1.1-0.2-1.5,0.2c-0.4,0.4-0.6,0.9-0.3,1.4l10.3,25.8c0.2,0.5,0.7,0.8,1.2,0.8
			c0,0,0,0,0,0c0.5,0,1-0.3,1.2-0.8l3.7-8.6l8.6-3.7c0.5-0.2,0.8-0.6,0.8-1.1C63.7,47.4,63.4,46.9,63,46.7z"/>
	</g>
</g>
</svg>
