<?xml version="1.0" encoding="utf-8"?>
<!-- Generator: Adobe Illustrator 24.0.0, SVG Export Plug-In . SVG Version: 6.00 Build 0)  -->
<svg version="1.1" id="Capa_1" xmlns="http://www.w3.org/2000/svg" xmlns:xlink="http://www.w3.org/1999/xlink" x="0px" y="0px"
	 viewBox="0 0 65 62" style="enable-background:new 0 0 65 62;" xml:space="preserve">
<style type="text/css">
	.st0{fill:#FFFFFF;}
</style>
<path class="st0" d="M27,8l-12.3,9.2H3.5c-1.9,0-3.4,1.5-3.4,3.4v23.5c0,1.9,1.5,3.4,3.4,3.4h11.3L27,56.8c2.3,1.7,5.4,0.1,5.4-2.7
	V10.7C32.5,7.9,29.2,6.3,27,8z"/>
<path class="st0" d="M43.6,13.5c-1.5-1.5-4.1-1.5-5.6,0c-1.5,1.5-1.5,4.1,0,5.6c7.3,7.3,7.3,19.2,0,26.5c-1.5,1.5-1.5,4.1,0,5.6
	c0.8,0.8,1.8,1.1,2.8,1.1c1,0,2-0.4,2.8-1.2C54,40.8,54,23.9,43.6,13.5z"/>
<path class="st0" d="M48,4.7c-1.5,1.5-1.5,4.1,0,5.6c5.9,5.9,9.2,13.7,9.2,22.1S53.9,48.6,48,54.5c-1.5,1.5-1.5,4.1,0,5.6
	c0.8,0.8,1.8,1.2,2.8,1.2c1,0,2-0.4,2.8-1.1C60.9,52.8,65,42.9,65,32.4C65,22,60.9,12.2,53.5,4.7C52,3.2,49.6,3.2,48,4.7z"/>
</svg>
