<?xml version="1.0" encoding="utf-8"?>
<!-- Generator: Adobe Illustrator 24.0.0, SVG Export Plug-In . SVG Version: 6.00 Build 0)  -->
<svg version="1.1" id="Capa_1" xmlns="http://www.w3.org/2000/svg" xmlns:xlink="http://www.w3.org/1999/xlink" x="0px" y="0px"
	 viewBox="0 0 65 62" style="enable-background:new 0 0 65 62;" xml:space="preserve">
<style type="text/css">
	.st0{fill:#FFFFFF;}
</style>
<path class="st0" d="M47.7,38.9c2.5-3.9,3.9-8.5,3.9-13.5C51.6,11.4,40.2,0,26.2,0C12.1,0,0.8,11.4,0.8,25.4s11.4,25.4,25.4,25.4
	c5.4,0,10.4-1.7,14.5-4.6l14.3,14.3c1,1,2.3,1.5,3.6,1.5c1.3,0,2.6-0.5,3.6-1.5c2-2,2-5.2,0-7.2L47.7,38.9z M26.1,42.6
	C16.7,42.6,9,34.9,9,25.4S16.7,8.2,26.1,8.2s17.2,7.7,17.2,17.2S35.6,42.6,26.1,42.6z"/>
<path class="st0" d="M34.5,23h-5.1v-5.1c0-1.8-1.5-3.3-3.3-3.3c-1.8,0-3.3,1.5-3.3,3.3V23h-5c-1.8,0-3.3,1.5-3.3,3.3
	c0,1.8,1.5,3.3,3.3,3.3h5.1v5.1c0,1.8,1.5,3.3,3.3,3.3c1.8,0,3.3-1.5,3.3-3.3v-5.1h5.1c1.8,0,3.3-1.5,3.3-3.3
	C37.7,24.4,36.3,23,34.5,23z"/>
</svg>
