<svg width="36" height="19" viewBox="0 0 36 19" fill="none" xmlns="http://www.w3.org/2000/svg">
<path fill-rule="evenodd" clip-rule="evenodd" d="M22.5 0C23.3284 0 24 0.671573 24 1.5C24 2.32843 23.3284 3 22.5 3H1.5C0.671574 3 0 2.32843 0 1.5C0 0.671573 0.671574 0 1.5 0H22.5ZM22.5 8C23.3284 8 24 8.67157 24 9.5C24 10.3284 23.3284 11 22.5 11H1.5C0.671574 11 0 10.3284 0 9.5C0 8.67157 0.671574 8 1.5 8H22.5ZM24 17.5C24 16.6716 23.3284 16 22.5 16H1.5C0.671574 16 0 16.6716 0 17.5C0 18.3284 0.671574 19 1.5 19H22.5C23.3284 19 24 18.3284 24 17.5ZM29.1161 6.88388C28.628 6.39573 28.628 5.60427 29.1161 5.11612C29.6043 4.62796 30.3957 4.62796 30.8839 5.11612L34.8839 9.11612C35.372 9.60427 35.372 10.3957 34.8839 10.8839L30.8839 14.8839C30.3957 15.372 29.6043 15.372 29.1161 14.8839C28.628 14.3957 28.628 13.6043 29.1161 13.1161L32.2322 10L29.1161 6.88388Z" fill="#AFEA7D"/>
</svg>
