<svg width="27" height="27" viewBox="0 0 27 27" fill="none" xmlns="http://www.w3.org/2000/svg">
<g clip-path="url(#clip0)">
<path d="M26.7451 12.958L14.6116 3.15691L13.9382 2.59772C13.6841 2.38666 13.3157 2.38666 13.0617 2.59772L9.56043 5.50539V4.27601C9.56043 3.89711 9.25318 3.58992 8.87441 3.58992H6.25882C5.87998 3.58992 5.57279 3.89717 5.57279 4.27601V8.80496L0.252335 13.1457C-0.0411354 13.3853 -0.0850807 13.8174 0.154512 14.111C0.2902 14.2774 0.487473 14.3634 0.686431 14.3634C0.838915 14.3634 0.992362 14.3128 1.12004 14.209L3.19553 12.5159V23.8745C3.19553 24.2534 3.50266 24.5606 3.88156 24.5606H11.2131C11.5921 24.5606 11.8993 24.2533 11.8993 23.8745V18.5513H15.1007V23.8745C15.1007 24.2534 15.4079 24.5606 15.7868 24.5606H23.1184C23.4974 24.5606 23.8045 24.2533 23.8045 23.8745V12.3469L25.8826 14.0255C26.0095 14.1279 26.1621 14.1779 26.3135 14.1779C26.5135 14.1779 26.7122 14.0908 26.8475 13.923C27.0858 13.6281 27.0398 13.1961 26.7451 12.958ZM6.94497 4.96209H8.1882V6.59734L6.94497 7.60363V4.96209ZM22.4324 11.4353V23.1883H16.473V17.865C16.473 17.4861 16.1658 17.179 15.7869 17.179H11.2132C10.8342 17.179 10.5272 17.4863 10.5272 17.865V23.1883H4.56777V11.4353L7.23513 9.2201C7.23513 9.2201 13.4807 4.10263 13.5205 4.03449L22.4324 11.4353Z" fill="white"/>
</g>
<defs>
<clipPath id="clip0">
<rect width="27" height="27" fill="white"/>
</clipPath>
</defs>
</svg>
