<svg width="37" height="37" viewBox="0 0 37 37" fill="none" xmlns="http://www.w3.org/2000/svg">
<g clip-path="url(#clip0)">
<path d="M36.6507 17.7573L20.0232 4.32614L19.1005 3.55985C18.7523 3.27062 18.2475 3.27062 17.8994 3.55985L13.1013 7.54444V5.85972C13.1013 5.3405 12.6803 4.91953 12.1612 4.91953H8.5769C8.05776 4.91953 7.63678 5.34058 7.63678 5.85972V12.0661L0.345792 18.0145C-0.0563707 18.3428 -0.116592 18.9349 0.211738 19.3373C0.397682 19.5654 0.668018 19.6832 0.940664 19.6832C1.14962 19.6832 1.3599 19.6139 1.53488 19.4716L4.37906 17.1514V32.7169C4.37906 33.2361 4.79995 33.6571 5.31917 33.6571H15.3662C15.8855 33.6571 16.3064 33.236 16.3064 32.7169V25.4222H20.6935V32.7169C20.6935 33.2361 21.1146 33.6571 21.6338 33.6571H31.6808C32.2001 33.6571 32.621 33.236 32.621 32.7169V16.9198L35.4688 19.2201C35.6427 19.3605 35.8518 19.429 36.0593 19.429C36.3333 19.429 36.6056 19.3096 36.791 19.0796C37.1176 18.6756 37.0546 18.0836 36.6507 17.7573ZM9.51718 6.79992H11.2209V9.04082L9.51718 10.4198V6.79992ZM30.7407 15.6706V31.7765H22.5742V24.4817C22.5742 23.9625 22.1531 23.5416 21.634 23.5416H15.3662C14.8469 23.5416 14.4261 23.9627 14.4261 24.4817V31.7765H6.25953V15.6706L9.9148 12.635C9.9148 12.635 18.4735 5.62214 18.5281 5.52875L30.7407 15.6706Z" fill="white"/>
</g>
<defs>
<clipPath id="clip0">
<rect width="37" height="37" fill="white"/>
</clipPath>
</defs>
</svg>
