<svg width="29" height="22" viewBox="0 0 29 22" fill="none" xmlns="http://www.w3.org/2000/svg">
<path d="M27.7126 0H0.563264C0.25223 0 0 0.252173 0 0.563264V21.3618C0 21.6729 0.25223 21.925 0.563264 21.925H27.7126C28.0236 21.925 28.2759 21.6729 28.2759 21.3618V0.563264C28.2759 0.252173 28.0236 0 27.7126 0ZM6.78733 20.7985H1.12653V17.7628H6.78733V20.7985ZM6.78733 16.6362H1.12653V13.6004H6.78733V16.6362ZM6.78733 12.4739H1.12653V9.43811H6.78733V12.4739ZM6.78733 8.31152H1.12653V5.28882H6.78733V8.31152ZM13.5747 20.7985H7.91386V17.7628H13.5747V20.7985ZM13.5747 16.6362H7.91386V13.6004H13.5747V16.6362ZM13.5747 12.4739H7.91386V9.43811H13.5747V12.4739ZM13.5747 8.31152H7.91386V5.28882H13.5747V8.31152ZM20.362 20.7985H14.7012V17.7628H20.362V20.7985ZM20.362 16.6362H14.7012V13.6004H20.362V16.6362ZM20.362 12.4739H14.7012V9.43811H20.362V12.4739ZM20.362 8.31152H14.7012V5.28882H20.362V8.31152ZM27.1493 20.7985H21.4885V17.7628H27.1493V20.7985ZM27.1493 16.6362H21.4885V13.6004H27.1493V16.6362ZM27.1493 12.4739H21.4885V9.43811H27.1493V12.4739ZM27.1493 8.31158H21.4885V5.28888H27.1493V8.31158ZM27.1493 4.14923H1.12653V1.12653H27.1493V4.14923Z" fill="white"/>
<path d="M11.7722 2.88672H22.5869C22.898 2.88672 23.1502 2.63455 23.1502 2.32346C23.1502 2.01237 22.898 1.76019 22.5869 1.76019H11.7722C11.4612 1.76019 11.209 2.01237 11.209 2.32346C11.209 2.63455 11.4612 2.88672 11.7722 2.88672Z" fill="white"/>
<path d="M24.5584 2.88672H25.7976C26.1086 2.88672 26.3608 2.63455 26.3608 2.32346C26.3608 2.01237 26.1086 1.76019 25.7976 1.76019H24.5584C24.2473 1.76019 23.9951 2.01237 23.9951 2.32346C23.9951 2.63455 24.2473 2.88672 24.5584 2.88672Z" fill="white"/>
</svg>
