<svg width="23" height="25" viewBox="0 0 23 25" fill="none" xmlns="http://www.w3.org/2000/svg">
<path d="M22.0646 20.9389C20.8398 18.4891 20.1923 15.7465 20.1923 13.0076V11.5385C20.1923 7.3334 17.3358 3.78345 13.4615 2.72549V2.40386C13.4615 1.07837 12.3832 0 11.0577 0C9.7322 0 8.65383 1.07837 8.65383 2.40386V2.72549C4.77956 3.7834 1.92307 7.33335 1.92307 11.5385V13.0076C1.92307 15.7465 1.27561 18.4891 0.0507548 20.9389C-0.023757 21.0879 -0.0157979 21.2649 0.0717998 21.4066C0.159349 21.5484 0.314085 21.6346 0.480735 21.6346H7.25676C7.48694 23.528 9.10315 25 11.0577 25C13.0122 25 14.6284 23.528 14.8586 21.6346H21.6346C21.8013 21.6346 21.956 21.5484 22.0436 21.4066C22.1312 21.2648 22.1391 21.0879 22.0646 20.9389ZM9.61535 2.40386C9.61535 1.60854 10.2624 0.961572 11.0576 0.961572C11.8529 0.961572 12.4999 1.60859 12.4999 2.40386V2.51753C12.4887 2.51577 12.4773 2.51426 12.4661 2.5125C12.4461 2.50942 12.4261 2.50659 12.4061 2.50361C12.358 2.49648 12.3098 2.48965 12.2615 2.4833C12.2356 2.47988 12.2096 2.47651 12.1836 2.47329C12.1379 2.46768 12.092 2.4625 12.0462 2.45752C12.0217 2.45488 11.9973 2.452 11.9728 2.44956C11.9066 2.44297 11.8404 2.43706 11.7741 2.43188C11.751 2.43013 11.7278 2.42871 11.7047 2.42705C11.6571 2.42368 11.6094 2.42056 11.5618 2.41797C11.5352 2.4165 11.5087 2.41528 11.4821 2.41401C11.4344 2.41182 11.3868 2.41001 11.3393 2.40859C11.316 2.40786 11.2927 2.40708 11.2694 2.40654C11.1988 2.40498 11.1282 2.40391 11.0576 2.40391C10.987 2.40391 10.9163 2.40498 10.8457 2.40659C10.8224 2.40713 10.7991 2.40796 10.7759 2.40864C10.7282 2.41011 10.6806 2.41191 10.6331 2.41406C10.6065 2.41528 10.5799 2.41655 10.5533 2.41802C10.5057 2.42061 10.4581 2.42373 10.4105 2.4271C10.3873 2.42871 10.3641 2.43008 10.341 2.43188C10.2747 2.43706 10.2085 2.44297 10.1424 2.44956C10.1178 2.452 10.0935 2.45488 10.069 2.45752C10.0231 2.46245 9.97727 2.46768 9.93152 2.47329C9.90549 2.47651 9.87956 2.47988 9.85363 2.4833C9.80534 2.48965 9.7572 2.49648 9.70901 2.50361C9.68899 2.50659 9.66902 2.50942 9.64904 2.5125C9.63786 2.51421 9.62649 2.51572 9.61526 2.51748V2.40386H9.61535ZM11.0577 24.0385C9.6342 24.0385 8.44953 22.9961 8.22673 21.6346H13.8886C13.6658 22.9961 12.4812 24.0385 11.0577 24.0385ZM1.2406 20.6731C1.38269 20.3565 1.51565 20.0357 1.63982 19.7116H4.32688C4.5924 19.7116 4.80764 19.4963 4.80764 19.2308C4.80764 18.9653 4.5924 18.75 4.32688 18.75H1.97839C2.57478 16.8978 2.88459 14.9519 2.88459 13.0076V11.5385C2.88459 7.6042 5.67903 4.3105 9.38723 3.5373C9.39836 3.53501 9.40949 3.53252 9.42063 3.53022C9.46482 3.52119 9.5093 3.51294 9.55368 3.50464C9.58503 3.49883 9.61633 3.49292 9.64778 3.48745C9.67912 3.48198 9.71057 3.4769 9.74206 3.47178C9.78952 3.46411 9.83703 3.45674 9.88464 3.4499C9.90349 3.44717 9.92239 3.44458 9.94128 3.44199C10.005 3.43335 10.0686 3.42524 10.1325 3.41812C10.1377 3.41753 10.1429 3.41689 10.1481 3.41636C10.7514 3.3499 11.3638 3.3499 11.9672 3.41636C11.9724 3.41694 11.9777 3.41758 11.9828 3.41812C12.0467 3.42529 12.1104 3.43335 12.174 3.44199C12.1929 3.44458 12.2118 3.44722 12.2307 3.4499C12.2783 3.45674 12.3259 3.46411 12.3733 3.47178C12.4047 3.47686 12.4362 3.48198 12.4676 3.48745C12.499 3.49287 12.5303 3.49878 12.5616 3.50464C12.6061 3.51294 12.6506 3.52119 12.6947 3.53022C12.7058 3.53247 12.717 3.53496 12.7281 3.5373C16.4363 4.3105 19.2307 7.6042 19.2307 11.5385V13.0076C19.2307 15.6384 19.7972 18.2723 20.8747 20.6731H1.2406V20.6731Z" fill="white"/>
</svg>
