<svg width="27" height="27" viewBox="0 0 27 27" fill="none" xmlns="http://www.w3.org/2000/svg">
<path fill-rule="evenodd" clip-rule="evenodd" d="M5.9945 16.0889C4.31928 16.1763 1.45596 17.1259 1.73245 19.1093C2.43181 24.142 -3.07508 25.7577 4.25352 25.7577C7.94024 25.7577 10.264 24.142 10.6152 20.7507L9.61998 16.9058L5.9945 16.0889Z" fill="#FE636E"/>
<path fill-rule="evenodd" clip-rule="evenodd" d="M7.31233 17.4198C6.53523 17.4605 5.20522 17.9007 5.33226 18.823C5.65805 21.1608 3.09959 21.9098 6.50386 21.9098C8.21646 21.9098 9.29693 21.1608 9.45978 19.5842L9.0832 17.6851L7.31233 17.4198Z" fill="#FFD659"/>
<path fill-rule="evenodd" clip-rule="evenodd" d="M8.99447 20.8984C7.99921 22.7086 6.0251 23.5813 3.31571 23.5813C2.2547 23.5813 1.46263 23.5466 0.882811 23.4743C0.0997586 25.1383 -0.281353 25.7577 4.25417 25.7577C7.94089 25.7577 10.2647 24.142 10.6159 20.7507L9.779 19.9067L9.49354 19.6188C9.46813 19.7168 9.44123 19.8117 9.41133 19.9067C9.33518 20.294 9.19322 20.6241 8.99447 20.8984V20.8984Z" fill="#FB2A39"/>
<path fill-rule="evenodd" clip-rule="evenodd" d="M8.68002 18.7989C8.31389 19.9293 7.31563 20.4704 5.86006 20.4704C5.56865 20.4704 5.32206 20.4659 5.11287 20.4539C4.68398 21.527 4.06978 21.9099 6.50415 21.9099C7.63989 21.9099 8.49767 21.5813 8.99385 20.8985C9.1926 20.6242 9.33456 20.2941 9.41076 19.9067C9.4317 19.8028 9.4481 19.6958 9.46007 19.5842L8.68002 18.7989Z" fill="#FFBF00"/>
<path fill-rule="evenodd" clip-rule="evenodd" d="M8.02155 13.3307L5.83671 14.6119C5.39738 14.8696 5.47058 15.5599 5.82026 15.9141L5.99513 16.0889L7.31317 17.4198L9.46061 19.5841L10.6158 20.7507L11.218 21.3581C11.5692 21.7108 12.2537 21.7832 12.5092 21.3416L13.7779 19.1365L12.3419 13.5538L8.02155 13.3307Z" fill="#838383"/>
<path fill-rule="evenodd" clip-rule="evenodd" d="M25.7259 0.466461C24.6753 0.272029 22.761 0.475479 20.4297 1.27135L21.4788 5.15998L25.7394 6.61298C26.5314 4.24662 26.7301 2.30832 26.5299 1.25627C26.4132 0.642805 26.3385 0.579524 25.7259 0.466461V0.466461Z" fill="#838383"/>
<path fill-rule="evenodd" clip-rule="evenodd" d="M13.7216 4.79526C10.8045 3.73267 8.54501 4.2165 6.25407 6.30853C5.19152 7.33949 3.42365 8.69444 4.88371 10.1671L6.69941 11.9984L11.9179 9.3396L13.7216 4.79526Z" fill="#03BED7"/>
<path fill-rule="evenodd" clip-rule="evenodd" d="M22.2424 13.3864L17.3377 15.4317L15.1006 20.4704L16.9163 22.3017C18.3763 23.7743 19.7198 21.9912 20.742 20.9196C21.8015 19.7379 23.689 17.4876 22.2424 13.3864V13.3864Z" fill="#03BED7"/>
<path fill-rule="evenodd" clip-rule="evenodd" d="M13.7224 4.7952C11.3 6.54809 8.8536 8.90242 6.7002 11.9982L8.02124 13.3306L10.8995 16.2336L13.7777 19.1365L14.7401 20.1071L15.1003 20.4703C18.1698 18.2984 20.5041 15.8311 22.2421 13.3864C23.6259 11.439 24.6316 9.50528 25.325 7.74933C25.4775 7.36199 25.6164 6.98215 25.739 6.6129L20.4293 1.27133C18.4104 1.96015 16.0776 3.09357 13.7224 4.7952V4.7952Z" fill="#ECECEC"/>
<path fill-rule="evenodd" clip-rule="evenodd" d="M20.1216 6.96414C18.7138 5.54432 16.4035 5.57449 14.9599 7.03048C13.5163 8.48648 13.4864 10.8167 14.8941 12.2365C16.3018 13.6563 18.6122 13.6261 20.0558 12.1701C21.4994 10.7141 21.5292 8.38396 20.1216 6.96414Z" fill="#A6E7F0"/>
<path fill-rule="evenodd" clip-rule="evenodd" d="M25.395 0.421295C25.4981 1.52461 25.2665 3.3016 24.5566 5.42226L25.7387 6.61295C26.5308 4.2466 26.7295 2.30829 26.5293 1.25624C26.4127 0.64278 26.338 0.579498 25.7253 0.466436C25.6221 0.446924 25.5131 0.431842 25.395 0.421295V0.421295Z" fill="#595959"/>
<path fill-rule="evenodd" clip-rule="evenodd" d="M24.1412 6.56023C23.4478 8.31612 22.4436 10.2484 21.0582 12.1973C20.459 13.0398 19.7895 13.8853 19.0423 14.7203C18.2921 15.5599 17.4657 16.3873 16.5556 17.1922C15.7441 17.9097 14.8669 18.609 13.9194 19.2797L14.7399 20.1072L15.1001 20.4704C18.1696 18.2985 20.5039 15.8311 22.2418 13.3864C23.6256 11.4391 24.6314 9.50534 25.3248 7.74939C25.4772 7.36205 25.6162 6.98221 25.7387 6.61296L24.5566 5.42227C24.4789 5.65288 24.3968 5.88649 24.3071 6.12464C24.2548 6.26787 24.1995 6.41405 24.1412 6.56023V6.56023Z" fill="#CECECE"/>
<path fill-rule="evenodd" clip-rule="evenodd" d="M12.3387 17.6851L11.07 19.8902C10.8144 20.3318 10.13 20.2595 9.77881 19.9067L10.6157 20.7508L11.2179 21.3582C11.5691 21.7109 12.2536 21.7832 12.5091 21.3416L13.7778 19.1366L12.3387 17.6851Z" fill="#595959"/>
<path fill-rule="evenodd" clip-rule="evenodd" d="M18.7867 6.12012C19.9285 7.55048 19.8163 9.67716 18.4654 11.0397C17.4208 12.0932 15.9204 12.3993 14.6382 11.9501C14.7174 12.0495 14.8026 12.1445 14.8937 12.2364C16.3015 13.6562 18.6118 13.6261 20.0554 12.1701C21.499 10.7141 21.5289 8.3839 20.1212 6.96413C19.7327 6.57226 19.2754 6.2904 18.7867 6.12012V6.12012Z" fill="#6BD9E7"/>
<path fill-rule="evenodd" clip-rule="evenodd" d="M22.2418 13.3864C22.0012 13.7256 21.7486 14.0647 21.4856 14.4023C21.8264 17.2766 20.3872 18.9828 19.5115 19.9595C18.6717 20.8382 17.6181 22.1962 16.46 21.842L16.9157 22.3017C18.3758 23.7742 19.7193 21.9912 20.7414 20.9196C21.8009 19.7379 23.6884 17.4876 22.2418 13.3864Z" fill="#0099B1"/>
<path fill-rule="evenodd" clip-rule="evenodd" d="M11.8735 4.31749C9.6931 5.96639 7.51275 8.10967 5.55957 10.8483L6.69979 11.9984C8.85325 8.90253 11.2996 6.54821 13.722 4.79532C13.0764 4.56017 12.4622 4.40039 11.8735 4.31749V4.31749Z" fill="#0099B1"/>
<path d="M26.9208 1.18184C26.775 0.414709 26.5756 0.218115 25.7978 0.0745723C24.4548 -0.173754 21.5857 0.143918 17.9187 1.85678C17.7193 1.94991 17.6332 2.18706 17.7263 2.38655C17.8195 2.58599 18.0566 2.67211 18.2561 2.57898C18.9709 2.24507 19.6631 1.96331 20.3225 1.72932L25.2822 6.71889C25.1823 7.00582 25.0735 7.30045 24.9542 7.60309C23.8648 10.3627 21.1496 15.6003 15.1441 19.9488L11.4606 16.2337L13.219 14.4615C13.3741 14.3053 13.3731 14.0529 13.2169 13.8979C13.0606 13.7429 12.8083 13.7438 12.6533 13.9001L10.8994 15.6677L7.21791 11.9546C9.73777 8.4133 12.9562 5.48064 16.5435 3.46044C16.7353 3.35244 16.8031 3.10938 16.6952 2.91759C16.5872 2.72574 16.3442 2.65792 16.1524 2.76587C15.3003 3.24575 14.4688 3.77595 13.6616 4.35181C10.7235 3.34041 8.34843 3.85679 5.98593 6.0142C5.98292 6.01695 5.98002 6.01964 5.97712 6.02248C5.87629 6.12025 5.7694 6.22071 5.65613 6.32708C4.89617 7.04094 3.95038 7.92936 3.93192 8.96933C3.92264 9.49293 4.14787 9.99027 4.60133 10.4476L6.41703 12.2788L7.37653 13.2466L5.63461 14.268C5.36203 14.428 5.18779 14.7 5.14392 15.0342C5.11201 15.2771 5.15388 15.5361 5.25413 15.7687C4.01435 15.9667 2.59484 16.5099 1.85408 17.4073C1.42198 17.9308 1.24827 18.5219 1.33781 19.1642C1.59637 21.0246 0.949267 22.397 0.476767 23.399C0.104515 24.1887 -0.189638 24.8125 0.149075 25.3468C0.532823 25.952 1.56858 26.1563 4.25366 26.1563C6.21168 26.1563 7.78401 25.7144 8.92698 24.8429C9.93953 24.0708 10.5971 22.9795 10.888 21.5917L10.9352 21.6393C11.1901 21.8953 11.5655 22.0465 11.9268 22.0465C11.9806 22.0465 12.0341 22.0431 12.0868 22.0363C12.4218 21.9927 12.6941 21.8169 12.8542 21.5403L13.8623 19.7881L14.4567 20.3875C14.4568 20.3876 14.4568 20.3877 14.4569 20.3878L16.6327 22.5823C17.0781 23.0315 17.5623 23.2591 18.0723 23.2591C18.0824 23.2591 18.0926 23.259 18.1028 23.2588C19.1375 23.2405 20.0192 22.2857 20.7277 21.5185C20.8331 21.4042 20.9328 21.2964 21.0298 21.1947C21.0326 21.1917 21.0354 21.1887 21.0381 21.1857C21.9642 20.1528 24.1144 17.7546 22.6846 13.4496C23.9271 11.677 24.9383 9.8135 25.6955 7.89561C26.9405 4.73909 27.1448 2.35776 26.9208 1.18184V1.18184ZM4.7289 8.98347C4.74134 8.27999 5.55113 7.51924 6.20187 6.90805C6.31589 6.80089 6.42373 6.6997 6.52777 6.59876C8.52962 4.77268 10.4609 4.25646 12.8698 4.93779C10.5343 6.72765 8.42463 8.90806 6.6489 11.3807L5.16733 9.88638C4.86685 9.58337 4.72341 9.28801 4.7289 8.98347ZM4.25366 25.3592C3.02189 25.3592 2.1822 25.3142 1.61103 25.2174C1.00411 25.1146 0.857192 24.9751 0.82223 24.92C0.718237 24.756 0.961976 24.239 1.1977 23.739C1.68386 22.708 2.4185 21.1499 2.12725 19.0543C2.06903 18.6364 2.18072 18.2637 2.46881 17.9147C3.13938 17.1023 4.6354 16.6003 5.8389 16.4992L6.49302 17.159C6.03481 17.2872 5.53995 17.5155 5.22581 17.8955C4.98851 18.1826 4.88895 18.5221 4.93799 18.878C5.04968 19.6794 4.77631 20.2588 4.55677 20.7244C4.37194 21.1163 4.19739 21.4864 4.4174 21.8335C4.64531 22.193 5.15241 22.3083 6.50431 22.3083C8.17266 22.3083 9.27987 21.6337 9.69574 20.3892L10.1964 20.8942C9.81639 23.8566 7.81882 25.3592 4.25366 25.3592V25.3592ZM5.72742 18.7686C5.70897 18.6347 5.74477 18.5187 5.84006 18.4034C6.09409 18.0961 6.6759 17.8928 7.16169 17.8334L9.03883 19.7266C8.84392 20.9108 7.99252 21.5113 6.50431 21.5113C5.59833 21.5113 5.25687 21.4518 5.12831 21.4077C5.15816 21.3177 5.22523 21.1754 5.27755 21.0645C5.51422 20.5627 5.87176 19.8046 5.72742 18.7686V18.7686ZM12.1639 21.1419C12.1514 21.1634 12.1135 21.229 11.9841 21.2458C11.8218 21.2669 11.6184 21.1958 11.5006 21.0775L9.75812 19.32C9.7481 19.3086 9.73745 19.2979 9.72617 19.2878L6.29463 15.8268C6.28309 15.8136 6.27085 15.8011 6.25772 15.7895L6.10347 15.634C5.98361 15.5126 5.91242 15.304 5.93425 15.1379C5.95154 15.0062 6.01657 14.9681 6.03787 14.9556L7.95593 13.8308L10.6185 16.5163L10.6187 16.5164C10.6187 16.5165 10.6187 16.5165 10.6188 16.5165L13.2806 19.2012L12.1639 21.1419ZM20.4489 20.649C20.3488 20.7539 20.2484 20.8627 20.1422 20.9777C19.5367 21.6334 18.783 22.4495 18.0887 22.4619C17.7895 22.4673 17.4981 22.3231 17.1988 22.0211L15.7113 20.5208C18.1326 18.7535 20.2512 16.6871 22.0119 14.3721C22.0402 14.3348 22.0676 14.2973 22.0958 14.26C23.0293 17.7636 21.3089 19.6898 20.4489 20.649ZM21.168 1.44936C23.1415 0.84344 24.7448 0.690457 25.6529 0.858363C25.8811 0.900498 26.0099 0.934512 26.0357 0.959613C26.0502 0.973693 26.0826 1.04051 26.1378 1.33081C26.2921 2.14107 26.2001 3.73545 25.5588 5.86655L21.168 1.44936Z" fill="black"/>
<path d="M18.3517 12.7454C18.1408 12.8084 18.021 13.0305 18.084 13.2414C18.147 13.4522 18.3689 13.5721 18.5799 13.509C19.2396 13.3119 19.8479 12.9459 20.3388 12.4508C21.9335 10.8424 21.9629 8.25527 20.4046 6.68357C19.6606 5.93326 18.6651 5.52003 17.6012 5.52003C16.5018 5.52003 15.4632 5.95678 14.677 6.74986C13.0823 8.3582 13.0528 10.9454 14.6111 12.5171C15.0697 12.9795 15.6398 13.3229 16.2599 13.5103C16.2983 13.5219 16.3371 13.5273 16.3753 13.5273C16.5464 13.5273 16.7045 13.4162 16.7566 13.2439C16.8202 13.0332 16.701 12.8108 16.4903 12.7472C15.9897 12.5959 15.5479 12.3297 15.1771 11.9558C13.9256 10.6935 13.9551 8.60985 15.2429 7.31106C15.8784 6.67007 16.716 6.31706 17.6012 6.31706C18.4509 6.31706 19.2455 6.64655 19.8387 7.24472C21.0902 8.50697 21.0607 10.5906 19.7729 11.8895C19.3755 12.2903 18.8841 12.5862 18.3517 12.7454V12.7454Z" fill="black"/>
</svg>
