<svg width="45" height="45" viewBox="0 0 45 45" fill="none" xmlns="http://www.w3.org/2000/svg">
<g clip-path="url(#clip0)">
<path d="M44.0622 20.625H6.0129L15.6626 10.9753C15.8384 10.7996 15.9372 10.5616 15.9372 10.3125V8.4375C15.9372 8.05843 15.7093 7.71609 15.3587 7.57142C15.2424 7.52291 15.1207 7.49997 14.9998 7.49997C14.7563 7.49997 14.5164 7.59516 14.3369 7.77463L0.274436 21.8371C-0.0918042 22.2034 -0.0918042 22.7966 0.274436 23.1628L14.3369 37.2253C14.6061 37.4926 15.0062 37.5741 15.3587 37.4286C15.7093 37.2839 15.9372 36.9415 15.9372 36.5625V34.6875C15.9372 34.4385 15.8384 34.2004 15.6626 34.0247L6.0129 24.375H44.0622C44.5805 24.375 44.9998 23.9556 44.9998 23.4374V21.5625C44.9997 21.0444 44.5804 20.625 44.0622 20.625Z" fill="black"/>
</g>
<defs>
<clipPath id="clip0">
<rect width="45" height="45" fill="white"/>
</clipPath>
</defs>
</svg>
