<svg width="30" height="30" viewBox="0 0 30 30" fill="none" xmlns="http://www.w3.org/2000/svg">
<g clip-path="url(#clip0)">
<path d="M16.9091 15.0682L29.5909 2.38636C30.1364 1.84095 30.1364 1.02267 29.5909 0.477253C29.0455 -0.0681621 28.2272 -0.0681621 27.6818 0.477253L15 13.1591L2.31817 0.477253C1.77275 -0.0681621 0.954476 -0.0681621 0.409061 0.477253C-0.136354 1.02267 -0.136354 1.84095 0.409061 2.38636L13.0907 15.0682L0.409061 27.7499C-0.136354 28.2953 -0.136354 29.1136 0.409061 29.659C0.681768 29.9317 1.22718 29.9317 1.49989 29.9317C1.7726 29.9317 2.31801 29.9317 2.31801 29.659L14.9998 16.9771L27.6817 29.659C27.9544 29.9317 28.4998 29.9317 28.7725 29.9317C29.0452 29.9317 29.5906 29.9317 29.5906 29.659C30.136 29.1136 30.136 28.2953 29.5906 27.7499L16.9091 15.0682Z" fill="black"/>
</g>
<defs>
<clipPath id="clip0">
<rect width="30" height="30" fill="white"/>
</clipPath>
</defs>
</svg>
