<svg width="32" height="31" viewBox="0 0 32 31" fill="none" xmlns="http://www.w3.org/2000/svg">
<path fill-rule="evenodd" clip-rule="evenodd" d="M7.0402 18.8954C5.07277 18.998 1.71 20.1132 2.03471 22.4427C2.85607 28.3532 -3.6114 30.2508 4.99554 30.2508C9.32534 30.2508 12.0545 28.3532 12.4669 24.3704L11.2981 19.8548L7.0402 18.8954Z" fill="#FE636E"/>
<path fill-rule="evenodd" clip-rule="evenodd" d="M8.58834 20.4584C7.67569 20.5062 6.11368 21.0231 6.26288 22.1064C6.6455 24.8519 3.64076 25.7316 7.63884 25.7316C9.65018 25.7316 10.9191 24.8519 11.1104 23.0003L10.6681 20.7699L8.58834 20.4584Z" fill="#FFD659"/>
<path fill-rule="evenodd" clip-rule="evenodd" d="M10.5628 24.5438C9.39394 26.6697 7.07548 27.6946 3.89349 27.6946C2.6474 27.6946 1.71716 27.6539 1.03621 27.569C0.116569 29.5232 -0.33102 30.2507 4.99565 30.2507C9.32544 30.2507 12.0546 28.3532 12.4671 24.3703L11.4842 23.379L11.1489 23.0409C11.1191 23.156 11.0875 23.2675 11.0524 23.379C10.963 23.834 10.7962 24.2216 10.5628 24.5438Z" fill="#FB2A39"/>
<path fill-rule="evenodd" clip-rule="evenodd" d="M10.1941 22.0781C9.76412 23.4057 8.59173 24.0412 6.88226 24.0412C6.54002 24.0412 6.25042 24.0358 6.00473 24.0217C5.50103 25.282 4.7797 25.7317 7.6387 25.7317C8.97255 25.7317 9.97995 25.3458 10.5627 24.5439C10.7961 24.2218 10.9628 23.8341 11.0523 23.3792C11.0769 23.257 11.0962 23.1314 11.1102 23.0004L10.1941 22.0781Z" fill="#FFBF00"/>
<path fill-rule="evenodd" clip-rule="evenodd" d="M9.42012 15.656L6.85418 17.1606C6.33822 17.4633 6.42418 18.274 6.83486 18.69L7.04023 18.8953L8.58818 20.4583L11.1102 23.0002L12.4669 24.3703L13.1742 25.0836C13.5867 25.4978 14.3905 25.5828 14.6905 25.0642L16.1806 22.4744L14.4941 15.918L9.42012 15.656Z" fill="#838383"/>
<path fill-rule="evenodd" clip-rule="evenodd" d="M30.2127 0.547848C28.9788 0.319501 26.7306 0.558439 23.9927 1.49313L25.2248 6.06007L30.2285 7.76652C31.1587 4.98739 31.3921 2.71098 31.157 1.47542C31.02 0.754952 30.9322 0.680633 30.2127 0.547848Z" fill="#838383"/>
<path fill-rule="evenodd" clip-rule="evenodd" d="M16.1158 5.63165C12.6898 4.3837 10.0362 4.95194 7.34562 7.40888C6.09773 8.61967 4.02149 10.211 5.73623 11.9405L7.86865 14.0912L13.9974 10.9687L16.1158 5.63165Z" fill="#03BED7"/>
<path fill-rule="evenodd" clip-rule="evenodd" d="M26.1215 15.7215L20.3613 18.1235L17.7339 24.0411L19.8663 26.1919C21.581 27.9213 23.1588 25.8272 24.3593 24.5687C25.6037 23.1808 27.8204 20.538 26.1215 15.7215Z" fill="#03BED7"/>
<path fill-rule="evenodd" clip-rule="evenodd" d="M16.1158 5.63166C13.2708 7.69032 10.3977 10.4553 7.86865 14.0912L9.42013 15.6559L12.8004 19.0652L16.1807 22.4745L17.311 23.6145L17.734 24.0411C21.3389 21.4903 24.0804 18.5926 26.1215 15.7214C27.7467 13.4344 28.9279 11.1633 29.7423 9.10109C29.9213 8.64619 30.0845 8.20009 30.2284 7.76643L23.9926 1.49312C21.6215 2.30209 18.8818 3.63321 16.1158 5.63166Z" fill="#ECECEC"/>
<path fill-rule="evenodd" clip-rule="evenodd" d="M23.6312 8.17892C21.9779 6.51144 19.2646 6.54686 17.5692 8.25683C15.8737 9.9668 15.8386 12.7034 17.4919 14.3709C19.1452 16.0384 21.8586 16.003 23.554 14.293C25.2494 12.583 25.2844 9.8464 23.6312 8.17892Z" fill="#A6E7F0"/>
<path fill-rule="evenodd" clip-rule="evenodd" d="M29.8249 0.494781C29.946 1.79054 29.674 3.8775 28.8403 6.36808L30.2286 7.76646C31.1588 4.98734 31.3922 2.71093 31.1571 1.47537C31.0202 0.7549 30.9324 0.680581 30.2128 0.547796C30.0917 0.524881 29.9636 0.507168 29.8249 0.494781Z" fill="#595959"/>
<path fill-rule="evenodd" clip-rule="evenodd" d="M28.3519 7.70452C27.5376 9.76671 26.3582 12.0361 24.7312 14.3248C24.0274 15.3144 23.2412 16.3074 22.3636 17.288C21.4825 18.274 20.512 19.2458 19.4431 20.1911C18.4901 21.0337 17.4599 21.855 16.3472 22.6427L17.3107 23.6145L17.7337 24.0411C21.3387 21.4903 24.0801 18.5926 26.1212 15.7214C27.7464 13.4344 28.9276 11.1634 29.742 9.10111C29.921 8.64621 30.0842 8.20011 30.2281 7.76646L28.8399 6.36807C28.7486 6.63891 28.6521 6.91327 28.5467 7.19296C28.4854 7.36117 28.4204 7.53285 28.3519 7.70452Z" fill="#CECECE"/>
<path fill-rule="evenodd" clip-rule="evenodd" d="M14.4908 20.7699L13.0007 23.3596C12.7006 23.8783 11.8968 23.7933 11.4844 23.3791L12.4673 24.3704L13.1745 25.0837C13.587 25.4979 14.3908 25.5829 14.6909 25.0643L16.1809 22.4745L14.4908 20.7699Z" fill="#595959"/>
<path fill-rule="evenodd" clip-rule="evenodd" d="M22.064 7.1877C23.405 8.86757 23.2733 11.3652 21.6867 12.9654C20.4599 14.2027 18.6978 14.5621 17.1919 14.0346C17.2849 14.1514 17.3849 14.2629 17.492 14.3709C19.1453 16.0384 21.8587 16.0029 23.5541 14.293C25.2495 12.583 25.2846 9.84636 23.6313 8.17894C23.1751 7.71871 22.638 7.38768 22.064 7.1877Z" fill="#6BD9E7"/>
<path fill-rule="evenodd" clip-rule="evenodd" d="M26.1214 15.7215C25.8388 16.1198 25.5422 16.518 25.2334 16.9145C25.6335 20.2902 23.9434 22.294 22.9149 23.441C21.9286 24.473 20.6912 26.0679 19.3311 25.6519L19.8663 26.1918C21.5811 27.9212 23.1589 25.8271 24.3593 24.5686C25.6037 23.1808 27.8203 20.538 26.1214 15.7215Z" fill="#0099B1"/>
<path fill-rule="evenodd" clip-rule="evenodd" d="M13.945 5.07056C11.3843 7.00708 8.82366 9.52422 6.52979 12.7406L7.8689 14.0912C10.398 10.4554 13.2711 7.69038 16.116 5.63173C15.3578 5.35557 14.6365 5.16792 13.945 5.07056Z" fill="#0099B1"/>
<path d="M31.6167 1.38799C31.4455 0.487048 31.2112 0.256162 30.2978 0.0875801C28.7205 -0.204062 25.3509 0.169022 21.0443 2.18067C20.8102 2.29004 20.709 2.56855 20.8184 2.80285C20.9278 3.03708 21.2062 3.13821 21.4405 3.02884C22.28 2.63668 23.093 2.30577 23.8673 2.03097L29.6922 7.89089C29.575 8.22786 29.4471 8.57388 29.307 8.92932C28.0276 12.1703 24.8388 18.3215 17.7858 23.4285L13.4597 19.0653L15.5249 16.984C15.707 16.8006 15.7058 16.5042 15.5223 16.3221C15.3388 16.1401 15.0425 16.1412 14.8604 16.3247L12.8006 18.4006L8.47694 14.0399C11.4363 9.88085 15.2162 6.43664 19.4292 4.06405C19.6544 3.93721 19.7341 3.65176 19.6074 3.42651C19.4805 3.2012 19.1951 3.12155 18.9699 3.24833C17.9692 3.81192 16.9927 4.43459 16.0446 5.1109C12.594 3.92309 9.80466 4.52954 7.03007 7.06328C7.02654 7.0665 7.02313 7.06966 7.01972 7.073C6.90131 7.18782 6.77577 7.30581 6.64274 7.43073C5.75022 8.26911 4.63945 9.3125 4.61778 10.5339C4.60688 11.1488 4.87139 11.7329 5.40395 12.27L7.53637 14.4207L8.66324 15.5572L6.61747 16.7568C6.29734 16.9447 6.09271 17.2642 6.04118 17.6566C6.00371 17.9419 6.05289 18.2461 6.17062 18.5193C4.71458 18.7518 3.04747 19.3897 2.1775 20.4436C1.67002 21.0585 1.46601 21.7527 1.57117 22.5071C1.87483 24.6919 1.11485 26.3037 0.55993 27.4806C0.122745 28.408 -0.222717 29.1406 0.175079 29.7681C0.625765 30.4789 1.84219 30.7188 4.99563 30.7188C7.2952 30.7188 9.1418 30.1998 10.4841 29.1763C11.6733 28.2696 12.4456 26.9879 12.7872 25.358L12.8427 25.414C13.142 25.7145 13.5829 25.8921 14.0072 25.8921C14.0704 25.8921 14.1333 25.8882 14.1952 25.8801C14.5886 25.829 14.9084 25.6225 15.0963 25.2976L16.2804 23.2397L16.9784 23.9437C16.9785 23.9439 16.9785 23.944 16.9787 23.9441L19.534 26.5214C20.0571 27.049 20.6257 27.3162 21.2247 27.3162C21.2366 27.3162 21.2486 27.3162 21.2605 27.3159C22.4757 27.2944 23.5112 26.173 24.3432 25.272C24.4671 25.1378 24.5842 25.0111 24.6981 24.8917C24.7014 24.8882 24.7046 24.8847 24.7078 24.8811C25.7955 23.6681 28.3207 20.8515 26.6415 15.7956C28.1007 13.7139 29.2884 11.5253 30.1776 9.27286C31.6398 5.56574 31.8797 2.76903 31.6167 1.38799ZM5.55377 10.5505C5.56839 9.72429 6.51943 8.83084 7.28368 8.11304C7.41758 7.98719 7.54423 7.86834 7.66643 7.7498C10.0175 5.60519 12.2856 4.99893 15.1147 5.7991C12.3718 7.90117 9.89416 10.4619 7.80869 13.3658L6.06868 11.6109C5.71579 11.255 5.54733 10.9081 5.55377 10.5505ZM4.99563 29.7827C3.549 29.7827 2.56284 29.7298 1.89205 29.6162C1.17926 29.4954 1.00671 29.3316 0.965653 29.2668C0.843521 29.0742 1.12978 28.4671 1.40662 27.8799C1.97758 26.669 2.84036 24.8392 2.49831 22.378C2.42993 21.8872 2.56111 21.4494 2.89945 21.0396C3.68699 20.0855 5.44396 19.4959 6.8574 19.3772L7.62561 20.1521C7.08748 20.3026 6.5063 20.5708 6.13737 21.0171C5.85867 21.3542 5.74174 21.7529 5.79934 22.1709C5.93051 23.1121 5.60945 23.7926 5.35162 24.3394C5.13455 24.7996 4.92955 25.2343 5.18793 25.6419C5.45561 26.0641 6.05116 26.1996 7.63887 26.1996C9.59824 26.1996 10.8986 25.4073 11.387 23.9458L11.975 24.5388C11.5287 28.0179 9.18267 29.7827 4.99563 29.7827ZM6.72647 22.0424C6.7048 21.8852 6.74685 21.7489 6.85876 21.6136C7.15709 21.2527 7.8404 21.0139 8.41092 20.9441L10.6155 23.1676C10.3866 24.5584 9.38668 25.2636 7.63887 25.2636C6.57486 25.2636 6.17384 25.1937 6.02285 25.1419C6.05791 25.0362 6.13668 24.8691 6.19812 24.7389C6.47608 24.1495 6.89598 23.2592 6.72647 22.0424ZM14.2856 24.8297C14.271 24.855 14.2265 24.932 14.0745 24.9517C13.8839 24.9765 13.6451 24.893 13.5067 24.7541L11.4603 22.69C11.4485 22.6767 11.436 22.6641 11.4227 22.6522L7.39262 18.5875C7.37906 18.572 7.36469 18.5573 7.34927 18.5437L7.16812 18.361C7.02734 18.2185 6.94373 17.9735 6.96937 17.7785C6.98969 17.6238 7.06605 17.579 7.09107 17.5643L9.3437 16.2434L12.4708 19.3972L12.4709 19.3974C12.471 19.3975 12.471 19.3975 12.4711 19.3975L15.5972 22.5505L14.2856 24.8297ZM24.0158 24.2509C23.8983 24.3741 23.7804 24.5018 23.6557 24.6369C22.9445 25.407 22.0594 26.3654 21.244 26.38C20.8925 26.3864 20.5503 26.2169 20.1988 25.8623L18.4518 24.1003C21.2955 22.0247 23.7836 19.5979 25.8515 16.879C25.8848 16.8353 25.917 16.7912 25.95 16.7474C27.0463 20.8622 25.0258 23.1243 24.0158 24.2509ZM24.8604 1.70217C27.1782 0.990563 29.061 0.810895 30.1277 1.00809C30.3956 1.05757 30.5469 1.09752 30.5772 1.127C30.5942 1.14354 30.6323 1.22201 30.6971 1.56295C30.8783 2.51455 30.7703 4.38703 30.0171 6.88986L24.8604 1.70217Z" fill="black"/>
<path d="M21.5523 14.9685C21.3047 15.0426 21.1639 15.3034 21.2379 15.551C21.312 15.7986 21.5726 15.9394 21.8204 15.8654C22.5952 15.6338 23.3095 15.2041 23.8861 14.6225C25.7589 12.7336 25.7935 9.69519 23.9633 7.84934C23.0896 6.96816 21.9204 6.48285 20.671 6.48285C19.3798 6.48285 18.1601 6.99578 17.2366 7.92719C15.3638 9.81609 15.3292 12.8545 17.1593 14.7004C17.6979 15.2435 18.3674 15.6468 19.0957 15.8668C19.1408 15.8805 19.1864 15.8869 19.2312 15.8869C19.4322 15.8869 19.6179 15.7564 19.679 15.5541C19.7538 15.3066 19.6138 15.0454 19.3663 14.9707C18.7783 14.793 18.2595 14.4804 17.8241 14.0412C16.3542 12.5588 16.3889 10.1116 17.9013 8.58628C18.6477 7.83349 19.6313 7.41891 20.671 7.41891C21.6689 7.41891 22.6021 7.80586 23.2987 8.50837C24.7686 9.9908 24.7339 12.4379 23.2215 13.9633C22.7548 14.4341 22.1776 14.7816 21.5523 14.9685Z" fill="black"/>
</svg>
