<svg width="149" height="43" viewBox="0 0 149 43" fill="none" xmlns="http://www.w3.org/2000/svg">
<g clip-path="url(#clip0)">
<path d="M32.8319 41.0047C31.3769 41.1286 29.8986 41.1208 28.4358 41.1053C23.5753 41.1053 18.707 41.0202 13.8465 40.9815C10.0463 40.9506 6.53254 39.4955 4.40413 36.1984C4.14872 35.7959 3.91653 35.378 3.72304 34.9523C2.53887 32.3595 2.47695 29.4185 2.43052 26.5703C2.37634 23.0023 2.32216 19.4265 2.41504 15.8586C2.50017 12.5847 2.27572 8.71486 3.86235 5.73509C5.01556 3.57572 7.03562 1.7182 9.2956 0.766222C10.6655 0.185748 12.5076 0.170268 13.9704 0.0851321C15.5802 -0.00774383 17.1978 -4.17224e-06 18.8076 -4.17224e-06C22.7471 0.0154752 26.6944 0.0309545 30.6339 0.0464338C34.674 0.0696528 38.3967 0.665607 41.1134 3.9627C43.3811 6.70254 43.6752 10.3944 43.8455 13.7998C44.0467 17.9251 44.0544 22.058 43.8764 26.1833C43.7449 29.1785 43.6752 32.3518 42.4136 35.1303C41.1288 37.9476 38.6599 39.7819 35.6956 40.5481C34.7514 40.7803 33.7994 40.9196 32.8319 41.0047Z" fill="#AFEA7D"/>
<path d="M23.7299 42.0032C23.3197 42.0032 22.956 41.7245 22.8631 41.3066L22.0582 37.7077C21.9498 37.2278 22.2517 36.7557 22.7315 36.6473C23.2114 36.539 23.6835 36.8408 23.7919 37.3207L24.5968 40.9196C24.7051 41.3995 24.4033 41.8716 23.9234 41.98C23.8615 41.9954 23.7996 42.0032 23.7299 42.0032Z" fill="#272E2E"/>
<path d="M15.8276 41.8871C15.7889 41.8871 15.7424 41.8871 15.696 41.8793C15.2084 41.8097 14.8756 41.3608 14.9452 40.8732L15.3167 38.3191C15.3864 37.8315 15.8353 37.4987 16.3229 37.5683C16.8105 37.638 17.1433 38.0869 17.0737 38.5745L16.7021 41.1286C16.648 41.562 16.2687 41.8871 15.8276 41.8871Z" fill="#272E2E"/>
<path d="M38.6055 20.069C40.1844 15.2781 39.0854 10.642 40.7417 13.9469C42.398 17.2517 41.3531 30.8348 40.7417 32.6537C40.1303 34.4725 40.1922 29.2559 39.5266 27.499C38.861 25.7421 36.7016 26.9495 35.6567 30.2157C34.6041 33.4741 32.29 36.6628 31.8411 33.4973C31.3922 30.3317 30.5099 17.6929 27.5765 22.0967C24.6432 26.5006 26.8026 30.2002 22.5999 32.0267C18.3973 33.8533 14.7906 34.0623 12.8325 30.2157C10.8743 26.369 9.98427 17.3601 7.22121 22.5921C4.45815 27.8241 4.33431 17.2595 5.22437 17.9483C6.11443 18.6371 6.60977 22.7237 7.93326 18.699C7.93326 18.699 9.20256 15.8741 10.3712 12.5692C11.5399 9.26438 11.7025 5.68091 13.2504 8.3898C14.7983 11.0987 18.792 25.866 19.922 21.9033C21.052 17.9405 22.004 9.76746 23.4126 7.0044C24.8135 4.24134 26.0983 -0.22445 28.3582 4.10976C30.626 8.44398 33.002 15.015 33.4974 20.0612C33.4974 20.069 35.9741 28.0563 38.6055 20.069Z" fill="#44CD88"/>
<path d="M4.04004 29.1476C4.04004 29.1476 0.835823 34.3409 0.4411 35.6799C0.0463771 37.0266 0.425621 37.7773 3.11902 36.9569C5.81243 36.1365 8.35878 35.4554 8.35878 35.4554C10.9129 37.3284 14.1094 38.4352 17.5845 38.4352C25.9433 38.4352 32.7232 31.988 32.7232 24.0394C32.7232 23.2809 32.6613 22.5379 32.5452 21.8104" fill="#3A3A3A"/>
<path d="M19.4346 14.2487C20.4485 11.1606 23.3508 8.93157 26.7795 8.93157C31.0518 8.93157 34.5114 12.3912 34.5114 16.6635C34.5114 18.5984 33.7994 20.3708 32.623 21.7252" fill="#3A3A3A"/>
<path d="M20.9823 14.9221C20.9823 14.9221 17.3447 12.368 13.9083 14.3958C10.4719 16.4236 3.62226 24.4419 2.5387 25.9821C1.45515 27.5222 0.51091 29.5965 6.59429 29.1785C12.6777 28.7528 26.1447 25.9898 26.1447 25.9898C26.1447 25.9898 32.8395 22.6695 32.5222 21.4234C32.2048 20.1773 20.9823 14.9221 20.9823 14.9221Z" fill="#3A3A3A"/>
<path d="M32.8162 17.2749C32.8162 17.2749 31.5778 16.5397 31.4075 17.7316C31.2373 18.9235 31.2373 20.5333 32.6768 19.4653C34.1164 18.3972 32.8162 17.2749 32.8162 17.2749Z" fill="#FFC550"/>
<path d="M22.0891 23.4125C22.0117 23.4125 21.9421 23.3815 21.8802 23.3274C21.7563 23.2113 21.7486 23.0178 21.8647 22.8862C23.6371 20.9668 22.7934 18.761 22.7547 18.6681C22.6928 18.5133 22.7702 18.3275 22.925 18.2656C23.0798 18.2037 23.2656 18.2811 23.3275 18.4359C23.3739 18.5442 24.3646 21.0906 22.3213 23.3041C22.2517 23.3738 22.1743 23.4125 22.0891 23.4125Z" fill="#272E2E"/>
<path d="M34.5342 14.4654C34.5342 14.4654 35.2385 13.9856 36.7245 14.3261L39.2167 14.1404C39.4411 14.1404 39.5495 14.4113 39.3792 14.5583L34.7509 16.9886" fill="#3F3F3F"/>
<path d="M34.7509 17.2982C34.6425 17.2982 34.5342 17.2362 34.48 17.1356C34.4026 16.9808 34.4568 16.7951 34.6116 16.7177L38.8839 14.4809L36.7555 14.6357C36.7245 14.6357 36.6936 14.6357 36.6626 14.628C35.3469 14.3261 34.7199 14.7209 34.7122 14.7209C34.5729 14.8215 34.3794 14.7828 34.2865 14.6435C34.1859 14.5041 34.2246 14.3107 34.3717 14.21C34.4026 14.1868 35.1843 13.6683 36.7555 14.0165L39.2012 13.8385C39.2089 13.8385 39.2167 13.8385 39.2244 13.8385C39.4489 13.8385 39.6501 13.9778 39.7352 14.1868C39.8204 14.4035 39.7662 14.6435 39.5959 14.7982C39.5727 14.8137 39.5572 14.8292 39.534 14.8447L34.8902 17.2595C34.8438 17.2827 34.7973 17.2982 34.7509 17.2982Z" fill="#272E2E"/>
<path d="M31.3222 20.9822C31.3222 20.9822 29.9755 20.4172 29.7975 21.3305C29.6118 22.2438 29.6118 23.4822 31.1674 22.6695C32.7231 21.8568 31.3222 20.9822 31.3222 20.9822Z" fill="#FFC550"/>
<path d="M27.6307 25.1152C27.6307 25.1152 25.5488 24.0858 24.9141 26.4077C24.2794 28.7296 26.7329 29.0702 27.6307 27.9634C28.5285 26.8566 28.4743 25.6725 27.6307 25.1152Z" fill="#FFC550"/>
<path d="M31.2683 25.0378C31.2683 25.0378 29.6508 24.3026 29.7127 27.0966C29.7668 29.8829 32.5841 26.1678 31.2683 25.0378Z" fill="#FFC550"/>
<path d="M28.1339 30.1228C28.1339 30.1228 27.7314 29.6739 26.973 30.355C26.2145 31.0438 25.5721 33.2264 26.973 32.5453C28.3738 31.8642 28.8692 30.4943 28.1339 30.1228Z" fill="#FFC550"/>
<path d="M24.2099 29.6197C24.2099 29.6197 23.5752 29.4417 22.9715 30.1228C22.3678 30.8039 22.8399 31.5933 23.8151 31.067C24.7903 30.5407 24.473 29.6429 24.2099 29.6197Z" fill="#FFC550"/>
<path d="M23.9699 33.2573C23.9699 33.2573 22.9405 32.971 22.2594 34.0236C21.5706 35.0762 22.7006 35.4167 23.5906 34.9214C24.4729 34.4183 24.442 33.5205 23.9699 33.2573Z" fill="#FFC550"/>
<path d="M32.6226 22.0348C32.553 22.0348 32.4756 22.0116 32.4214 21.9574C32.2898 21.8491 32.2821 21.6478 32.3904 21.524C33.4972 20.247 34.2402 18.4359 34.4182 16.5474C34.573 14.9066 33.9848 13.258 32.7465 11.8959C31.2372 10.2318 29.0082 9.24116 26.7869 9.24116C23.5672 9.24116 20.7345 11.2922 19.7361 14.3493C19.6819 14.5119 19.5116 14.597 19.3491 14.5506C19.1866 14.4964 19.1014 14.3261 19.1479 14.1636C20.2314 10.851 23.3041 8.62973 26.7869 8.62973C29.1785 8.62973 31.5778 9.6978 33.2031 11.4857C34.5575 12.9794 35.2077 14.7982 35.0374 16.6171C34.8439 18.6603 34.0699 20.5488 32.8626 21.9342C32.7929 21.9961 32.7078 22.0348 32.6226 22.0348Z" fill="#272E2E"/>
<path d="M31.9339 15.5877C31.8255 15.5877 31.7172 15.5799 31.6011 15.5567C31.4308 15.5258 31.3225 15.3632 31.3534 15.2007C31.3844 15.0304 31.5469 14.9221 31.7094 14.953C31.9726 14.9995 32.1661 14.9685 32.2744 14.8679C32.437 14.7208 32.4525 14.4267 32.437 14.3261C32.4215 14.1558 32.5453 14.0088 32.7156 13.9933C32.8859 13.9778 33.0329 14.1017 33.0484 14.2719C33.0561 14.3416 33.1026 14.9453 32.6846 15.3245C32.5066 15.4948 32.2512 15.5877 31.9339 15.5877Z" fill="#FFDB9C"/>
<path d="M2.77832 31.245C2.77832 31.245 5.85871 33.4199 15.8274 29.4262C25.7961 25.4325 17.9713 25.9898 17.9713 25.9898C17.9713 25.9898 13.7377 28.7916 4.03989 29.1476L2.77832 31.245Z" fill="#333333"/>
<path d="M17.5768 38.7448C14.1946 38.7448 10.9826 37.7231 8.28924 35.7882C7.7165 35.943 5.49522 36.5544 3.20428 37.251C1.67957 37.7154 0.758545 37.7154 0.301905 37.2665C-0.146996 36.8176 -0.00768162 36.0978 0.139372 35.5947C0.541835 34.2248 3.6377 29.2018 3.76928 28.9851C3.86215 28.838 4.0479 28.7916 4.19496 28.8844C4.34201 28.9773 4.38845 29.1631 4.29557 29.3101C4.26461 29.3643 1.11457 34.4802 0.735326 35.7727C0.572793 36.3145 0.572793 36.6705 0.735326 36.8331C0.89012 36.9879 1.38546 37.1659 3.01853 36.6705C5.68097 35.8579 8.2428 35.1768 8.26602 35.169C8.3589 35.1458 8.45177 35.1613 8.52917 35.2155C11.1374 37.1272 14.2643 38.1333 17.5691 38.1333C25.7422 38.1333 32.3983 31.81 32.3983 24.0471C32.3983 23.3196 32.3364 22.5843 32.2203 21.8646C32.1893 21.6943 32.3054 21.5395 32.4757 21.5085C32.646 21.4776 32.8008 21.5937 32.8317 21.7639C32.9556 22.5147 33.0175 23.2809 33.0175 24.0394C33.033 32.1506 26.0982 38.7448 17.5768 38.7448Z" fill="#272E2E"/>
<path d="M16.7798 26.8489C16.6715 26.8489 16.5631 26.7947 16.509 26.6864C16.4238 26.5393 16.478 26.3458 16.6328 26.2684C16.6405 26.2684 17.3294 25.8814 17.5538 25.7267C17.6931 25.6338 17.8866 25.6647 17.9872 25.8118C18.0801 25.9511 18.0491 26.1446 17.9021 26.2452C17.6544 26.4155 16.9579 26.7947 16.9346 26.8102C16.8805 26.8334 16.834 26.8489 16.7798 26.8489Z" fill="#272E2E"/>
<path d="M4.84475 29.4804C3.28908 29.4804 2.26745 29.1863 1.80307 28.6058C1.20711 27.8551 1.49348 26.7638 2.66991 25.2777C4.83702 22.5534 7.39111 19.4111 10.3786 16.7022C10.5025 16.5861 10.634 16.47 10.7656 16.3539C11.9653 15.2549 13.2036 14.1171 14.7206 13.5212C16.8954 12.6621 19.0161 13.6295 20.6337 14.566C20.7807 14.6512 20.8349 14.8447 20.7498 14.9917C20.6646 15.1388 20.4711 15.193 20.3241 15.1001C18.7452 14.1791 16.8645 13.3432 14.9528 14.0939C13.5519 14.6434 12.3522 15.7502 11.1913 16.8106C11.0597 16.9266 10.9359 17.0505 10.8043 17.1666C7.85549 19.8522 5.31687 22.9636 3.16525 25.6725C2.50738 26.5084 1.81854 27.6229 2.2984 28.2266C2.66991 28.6987 4.07079 29.3411 9.27185 28.3659C12.4219 27.7699 15.3243 26.8876 15.5642 26.7792C15.719 26.7096 15.9047 26.7715 15.9744 26.9263C16.0441 27.0811 15.9821 27.2668 15.8273 27.3365C15.5178 27.4836 12.4761 28.3891 9.39568 28.9696C7.56138 29.3101 6.0444 29.4804 4.84475 29.4804Z" fill="#272E2E"/>
</g>
<path d="M66.3403 13C72.9205 13 75.3019 14.6123 75.3019 18.5159C75.3019 20.595 74.2574 22.08 72.2311 22.9499C74.8214 23.8621 76.1584 25.6442 76.1584 28.19C76.1584 32.73 73.6098 34.5121 65.9434 34.5121H56V13H66.3403ZM64.0425 21.8042H64.8154C66.6745 21.8042 67.3012 21.1466 67.3012 19.7252C67.3012 18.3038 66.6954 17.5188 65.2958 17.5188H64.0425V21.8042ZM65.254 29.972C66.967 29.972 67.8026 29.3144 67.8026 27.702C67.8026 26.0473 67.1968 25.2623 65.3794 25.2623H64.0425V29.972H65.254Z" fill="white"/>
<path d="M85.0366 18.028H77.5791V13H85.0366V18.028ZM85.0366 34.5121H77.5791V19.216H85.0366V34.5121Z" fill="white"/>
<path d="M86.457 26.8746C86.457 21.783 89.7785 18.7493 95.8573 18.7493C101.853 18.7493 105.07 21.7618 105.07 26.8746C105.07 31.9662 101.79 35 95.6693 35C89.6531 35 86.457 31.9875 86.457 26.8746ZM97.4031 27.0656V26.6837C97.4031 24.0955 96.9644 23.2469 95.7737 23.2469C94.583 23.2469 94.1444 24.0955 94.1444 26.6837V27.0656C94.1444 29.6538 94.583 30.5024 95.7737 30.5024C96.9644 30.5024 97.4031 29.6538 97.4031 27.0656Z" fill="white"/>
<path d="M110.939 13L115.117 25.2199L119.128 13H125.311L117.561 34.5121H109.937L102.291 13H110.939Z" fill="white"/>
<path d="M133.354 18.028H125.896V13H133.354V18.028ZM133.354 34.5121H125.896V19.216H133.354V34.5121Z" fill="white"/>
<path d="M135.025 23.8197V19.216H148.958V22.1225L143.736 29.9084H149V34.5121H134.67V31.6056L140.185 23.8197H135.025Z" fill="white"/>
<defs>
<clipPath id="clip0">
<rect width="44" height="42.0032" fill="white"/>
</clipPath>
</defs>
</svg>
