<svg width="512" height="512" viewBox="0 0 512 512" fill="none" xmlns="http://www.w3.org/2000/svg">
<g clip-path="url(#clip0)">
<path d="M453.621 451.082H19.5117C12.8789 451.082 7.5 445.703 7.5 439.07V82.1094C7.5 61.0664 24.5586 44.0078 45.6016 44.0078H427.531C448.57 44.0078 465.629 61.0664 465.629 82.1094V439.07C465.629 445.703 460.254 451.082 453.621 451.082V451.082Z" fill="#FCFCFC"/>
<path d="M465.625 82.1133V439.066C465.625 445.703 460.254 451.082 453.621 451.082H417.195C423.828 451.082 429.207 445.703 429.207 439.066V82.1133C429.207 61.0625 412.145 44.0117 391.109 44.0117H427.535C448.574 44.0117 465.625 61.0625 465.625 82.1133V82.1133Z" fill="#EFF7F6"/>
<path d="M465.625 82.1133V140.383H7.49609V82.1133C7.49609 61.0625 24.5586 44.0117 45.6094 44.0117H427.535C448.574 44.0117 465.625 61.0625 465.625 82.1133Z" fill="#AFEA7D"/>
<path d="M465.625 82.1133V140.383H429.207V82.1133C429.207 61.0625 412.145 44.0117 391.105 44.0117H427.535C448.574 44.0117 465.625 61.0625 465.625 82.1133Z" fill="#44CD88"/>
<path d="M198.336 409.426C192.695 409.426 187.059 407.273 182.754 402.973L144.191 364.41C135.586 355.805 135.586 341.852 144.191 333.246C152.797 324.645 166.75 324.641 175.355 333.246L198.336 356.23L288.359 266.207C296.965 257.602 310.918 257.602 319.523 266.207C328.129 274.812 328.129 288.762 319.523 297.367L213.918 402.973C209.613 407.273 203.977 409.426 198.336 409.426V409.426Z" fill="#FFC550"/>
<path d="M89.3164 74.375H75.3828C69.4648 74.375 64.6641 69.5781 64.6641 63.6602V27.2188C64.6641 21.3008 69.4648 16.5 75.3828 16.5H89.3164C95.2344 16.5 100.031 21.3008 100.031 27.2188V63.6562C100.031 69.5781 95.2344 74.375 89.3164 74.375Z" fill="#FFBD47"/>
<path d="M189.426 74.375H175.492C169.574 74.375 164.777 69.5781 164.777 63.6602V27.2188C164.777 21.3008 169.574 16.5 175.492 16.5H189.426C195.344 16.5 200.145 21.3008 200.145 27.2188V63.6562C200.145 69.5781 195.344 74.375 189.426 74.375Z" fill="#FFBD47"/>
<path d="M289.535 74.375H275.602C269.684 74.375 264.887 69.5781 264.887 63.6602V27.2188C264.887 21.3008 269.684 16.5 275.602 16.5H289.535C295.457 16.5 300.254 21.3008 300.254 27.2188V63.6562C300.254 69.5781 295.457 74.375 289.535 74.375V74.375Z" fill="#FFBD47"/>
<path d="M389.648 74.375H375.715C369.793 74.375 364.996 69.5781 364.996 63.6602V27.2188C364.996 21.3008 369.793 16.5 375.715 16.5H389.648C395.566 16.5 400.363 21.3008 400.363 27.2188V63.6562C400.363 69.5781 395.566 74.375 389.648 74.375V74.375Z" fill="#FFBD47"/>
<path d="M504.5 403.195C504.5 454.008 463.309 495.199 412.496 495.199C361.684 495.199 320.492 454.008 320.492 403.195C320.492 352.383 361.684 311.191 412.496 311.191C463.309 311.191 504.5 352.383 504.5 403.195V403.195Z" fill="#AFEA7D"/>
<path d="M478.66 403.195C478.66 439.738 449.039 469.363 412.496 469.363C375.953 469.363 346.328 439.738 346.328 403.195C346.328 366.652 375.953 337.031 412.496 337.031C449.039 337.031 478.66 366.652 478.66 403.195V403.195Z" fill="#D0F4EF"/>
<path d="M7.5 373.832C11.6406 373.832 15 370.477 15 366.332V147.891H458.129V230.332C458.129 234.477 461.488 237.832 465.629 237.832C469.773 237.832 473.129 234.477 473.129 230.332V82.1094C473.129 56.9648 452.672 36.5078 427.531 36.5078H407.863V27.2188C407.863 17.1719 399.691 9 389.645 9H375.711C365.668 9 357.496 17.1719 357.496 27.2188V36.5078H307.754V27.2188C307.754 17.1719 299.582 9 289.535 9H275.602C265.559 9 257.387 17.1719 257.387 27.2188V36.5078H207.641V27.2188C207.641 17.1719 199.469 9 189.422 9H175.492C165.445 9 157.273 17.1719 157.273 27.2188V36.5078H107.531V27.2188C107.531 17.1719 99.3594 9 89.3125 9H75.3828C65.3359 9 57.1641 17.1719 57.1641 27.2188V36.5078H45.6016C20.457 36.5078 0 56.9648 0 82.1094V366.332C0 370.477 3.35938 373.832 7.5 373.832ZM372.496 27.2188C372.496 25.4453 373.941 24 375.715 24H389.648C391.422 24 392.863 25.4453 392.863 27.2188V63.6562C392.863 65.4297 391.422 66.875 389.648 66.875H375.715C373.941 66.875 372.496 65.4336 372.496 63.6562V27.2188ZM272.387 27.2188C272.387 25.4453 273.828 24 275.602 24H289.535C291.309 24 292.754 25.4453 292.754 27.2188V63.6562C292.754 65.4297 291.309 66.875 289.535 66.875H275.602C273.828 66.875 272.387 65.4336 272.387 63.6562V27.2188ZM172.273 27.2188C172.273 25.4453 173.719 24 175.492 24H189.426C191.199 24 192.645 25.4453 192.645 27.2188V63.6562C192.645 65.4297 191.199 66.875 189.426 66.875H175.492C173.719 66.875 172.273 65.4336 172.273 63.6562V27.2188ZM72.1641 27.2188C72.1641 25.4453 73.6094 24 75.3828 24H89.3164C91.0898 24 92.5312 25.4453 92.5312 27.2188V63.6562C92.5312 65.4297 91.0898 66.875 89.3164 66.875H75.3828C73.6094 66.875 72.1641 65.4336 72.1641 63.6562V27.2188ZM45.6016 51.5078H57.1641V63.6562C57.1641 73.7031 65.3359 81.875 75.3828 81.875H89.3164C99.3594 81.875 107.531 73.7031 107.531 63.6562V51.5078H157.277V63.6562C157.277 73.7031 165.449 81.875 175.492 81.875H189.426C199.473 81.875 207.645 73.7031 207.645 63.6562V51.5078H257.387V63.6562C257.387 73.7031 265.559 81.875 275.605 81.875H289.539C299.582 81.875 307.754 73.7031 307.754 63.6562V51.5078H357.496V63.6562C357.496 73.7031 365.668 81.875 375.715 81.875H389.648C399.691 81.875 407.863 73.7031 407.863 63.6562V51.5078H427.531C444.406 51.5078 458.133 65.2344 458.133 82.1094V132.891H15V82.1094C15 65.2344 28.7266 51.5078 45.6016 51.5078Z" fill="black"/>
<path d="M84.9102 443.582H19.5117C17.0234 443.582 15 441.559 15 439.07V400.512C15 396.367 11.6406 393.012 7.5 393.012C3.35938 393.012 0 396.367 0 400.512V439.07C0 449.828 8.75391 458.582 19.5117 458.582H84.9102C89.0508 458.582 92.4102 455.223 92.4102 451.082C92.4102 446.938 89.0508 443.582 84.9102 443.582V443.582Z" fill="black"/>
<path d="M84.6602 169.762H58.5898C54.4492 169.762 51.0898 173.121 51.0898 177.262C51.0898 181.406 54.4492 184.762 58.5898 184.762H84.6602C88.8008 184.762 92.1602 181.406 92.1602 177.262C92.1602 173.121 88.8008 169.762 84.6602 169.762Z" fill="black"/>
<path d="M138.707 184.762H164.777C168.918 184.762 172.277 181.406 172.277 177.262C172.277 173.121 168.918 169.762 164.777 169.762H138.707C134.566 169.762 131.207 173.121 131.207 177.262C131.207 181.406 134.566 184.762 138.707 184.762Z" fill="black"/>
<path d="M218.824 184.762H244.891C249.031 184.762 252.391 181.406 252.391 177.262C252.391 173.121 249.031 169.762 244.891 169.762H218.824C214.68 169.762 211.324 173.121 211.324 177.262C211.324 181.406 214.68 184.762 218.824 184.762Z" fill="black"/>
<path d="M298.938 184.762H325.008C329.148 184.762 332.508 181.406 332.508 177.262C332.508 173.121 329.148 169.762 325.008 169.762H298.938C294.797 169.762 291.438 173.121 291.438 177.262C291.438 181.406 294.797 184.762 298.938 184.762Z" fill="black"/>
<path d="M405.121 169.762H379.055C374.91 169.762 371.555 173.121 371.555 177.262C371.555 181.406 374.91 184.762 379.055 184.762H405.121C409.262 184.762 412.621 181.406 412.621 177.262C412.621 173.121 409.262 169.762 405.121 169.762V169.762Z" fill="black"/>
<path d="M84.6602 207.477H58.5898C54.4492 207.477 51.0898 210.832 51.0898 214.977C51.0898 219.121 54.4492 222.477 58.5898 222.477H84.6602C88.8008 222.477 92.1602 219.121 92.1602 214.977C92.1602 210.832 88.8008 207.477 84.6602 207.477Z" fill="black"/>
<path d="M138.707 222.477H164.777C168.918 222.477 172.277 219.121 172.277 214.977C172.277 210.832 168.918 207.477 164.777 207.477H138.707C134.566 207.477 131.207 210.832 131.207 214.977C131.207 219.121 134.566 222.477 138.707 222.477Z" fill="black"/>
<path d="M218.824 222.477H244.891C249.031 222.477 252.391 219.121 252.391 214.977C252.391 210.832 249.031 207.477 244.891 207.477H218.824C214.68 207.477 211.324 210.832 211.324 214.977C211.324 219.121 214.68 222.477 218.824 222.477Z" fill="black"/>
<path d="M298.938 222.477H325.008C329.148 222.477 332.508 219.121 332.508 214.977C332.508 210.832 329.148 207.477 325.008 207.477H298.938C294.797 207.477 291.438 210.832 291.438 214.977C291.438 219.121 294.797 222.477 298.938 222.477Z" fill="black"/>
<path d="M405.121 207.477H379.055C374.91 207.477 371.555 210.832 371.555 214.977C371.555 219.121 374.91 222.477 379.055 222.477H405.121C409.262 222.477 412.621 219.121 412.621 214.977C412.621 210.832 409.262 207.477 405.121 207.477V207.477Z" fill="black"/>
<path d="M138.891 369.715L177.453 408.277C183.031 413.855 190.445 416.926 198.336 416.926C206.227 416.926 213.645 413.855 219.219 408.277L324.824 302.672C336.34 291.156 336.34 272.418 324.824 260.902C313.309 249.387 294.57 249.387 283.055 260.902L198.336 345.621L180.656 327.945C169.145 316.43 150.406 316.43 138.887 327.945C127.375 339.461 127.375 358.199 138.891 369.715V369.715ZM149.496 338.551C152.328 335.719 156.051 334.301 159.773 334.301C163.496 334.301 167.219 335.719 170.051 338.551L193.031 361.531C195.961 364.461 200.707 364.461 203.637 361.531L293.66 271.512C299.332 265.844 308.551 265.844 314.215 271.508C319.883 277.176 319.883 286.398 314.215 292.066L208.613 397.668C205.867 400.414 202.219 401.926 198.336 401.926C194.453 401.926 190.805 400.414 188.059 397.668L149.496 359.105C143.828 353.437 143.828 344.219 149.496 338.551V338.551Z" fill="black"/>
<path d="M473.129 324.359V264.512C473.129 260.367 469.773 257.012 465.629 257.012C461.488 257.012 458.129 260.367 458.129 264.512V314.793C444.453 307.703 428.934 303.691 412.496 303.691C357.629 303.691 312.992 348.328 312.992 403.195C312.992 417.566 316.059 431.23 321.562 443.582H119.086C114.945 443.582 111.586 446.938 111.586 451.082C111.586 455.223 114.945 458.582 119.086 458.582H329.871C347.75 485.172 378.113 502.699 412.496 502.699C467.363 502.699 512 458.062 512 403.195C512 371.133 496.75 342.566 473.129 324.359V324.359ZM412.496 487.699C365.898 487.699 327.992 449.793 327.992 403.195C327.992 356.598 365.902 318.691 412.496 318.691C459.09 318.691 497 356.598 497 403.195C497 449.793 459.09 487.699 412.496 487.699Z" fill="black"/>
<path d="M412.496 329.527C371.875 329.527 338.828 362.578 338.828 403.195C338.828 443.816 371.875 476.863 412.496 476.863C453.117 476.863 486.16 443.816 486.16 403.195C486.16 362.578 453.113 329.527 412.496 329.527V329.527ZM419.211 461.465C419.707 460.461 419.996 459.336 419.996 458.141V449.004C419.996 444.863 416.637 441.504 412.496 441.504C408.355 441.504 404.996 444.863 404.996 449.004V458.141C404.996 459.336 405.281 460.461 405.781 461.465C378.789 458.375 357.316 436.902 354.227 409.91C355.227 410.41 356.355 410.695 357.551 410.695H366.684C370.828 410.695 374.184 407.34 374.184 403.195C374.184 399.051 370.828 395.695 366.684 395.695H357.551C356.355 395.695 355.227 395.984 354.227 396.48C357.316 369.488 378.789 348.016 405.781 344.926C405.281 345.93 404.996 347.055 404.996 348.25V357.387C404.996 361.531 408.355 364.887 412.496 364.887C416.637 364.887 419.996 361.531 419.996 357.387V348.25C419.996 347.055 419.707 345.93 419.211 344.926C446.203 348.016 467.676 369.488 470.766 396.48C469.762 395.984 468.637 395.695 467.441 395.695H458.305C454.164 395.695 450.805 399.051 450.805 403.195C450.805 407.34 454.164 410.695 458.305 410.695H467.441C468.637 410.695 469.762 410.41 470.766 409.91C467.672 436.902 446.203 458.375 419.211 461.465V461.465Z" fill="black"/>
<path d="M429.027 395.695H419.996V388.004C419.996 383.863 416.637 380.504 412.496 380.504C408.352 380.504 404.996 383.863 404.996 388.004V403.195C404.996 407.34 408.352 410.695 412.496 410.695H429.027C433.168 410.695 436.527 407.34 436.527 403.195C436.527 399.051 433.168 395.695 429.027 395.695V395.695Z" fill="black"/>
</g>
<defs>
<clipPath id="clip0">
<rect width="512" height="512" fill="white"/>
</clipPath>
</defs>
</svg>
