<svg width="33" height="33" viewBox="0 0 33 33" fill="none" xmlns="http://www.w3.org/2000/svg">
<g clip-path="url(#clip0)">
<path d="M16.7255 9.08233V5.38786C16.7255 4.33907 15.8674 3.48096 14.8186 3.48096H2.40007C1.35127 3.48096 0.493164 4.33907 0.493164 5.38786V9.08233H16.7255Z" fill="#FAC600"/>
<path d="M30.5999 29.519H2.40007C1.35127 29.519 0.493164 28.6609 0.493164 27.6121V7.88493C0.493164 6.83614 1.35127 5.97803 2.40007 5.97803H30.5999C31.6487 5.97803 32.5068 6.83614 32.5068 7.88493V27.6121C32.5068 28.6609 31.6487 29.519 30.5999 29.519Z" fill="#FEE45A"/>
<path d="M30.6001 5.97803H28.6274C29.6762 5.97803 30.5343 6.83614 30.5343 7.88493V27.6121C30.5343 28.6609 29.6762 29.519 28.6274 29.519H30.6001C31.6489 29.519 32.507 28.6609 32.507 27.6121V7.88493C32.507 6.83614 31.6489 5.97803 30.6001 5.97803Z" fill="#FED402"/>
<path d="M0.493164 26.1961V27.6121C0.493164 28.6609 1.35127 29.519 2.40007 29.519H30.5999C31.6487 29.519 32.5068 28.6609 32.5068 27.6121V26.1961H0.493164Z" fill="#FAC600"/>
<path d="M30.5999 5.48483H22.9592C22.6868 5.48483 22.4661 5.70564 22.4661 5.978C22.4661 6.25036 22.6868 6.47116 22.9592 6.47116H30.5999C31.3795 6.47116 32.0137 7.10537 32.0137 7.8849V15.298H28.7186C28.0984 14.1211 26.8811 13.3775 25.5312 13.3775C23.9661 13.3775 22.5888 14.3771 22.1043 15.865C22.0553 16.0152 22.0813 16.1797 22.1741 16.3075C22.2669 16.4353 22.4153 16.511 22.5732 16.511H25.401L25.6379 16.9862L25.3955 17.4929H22.5868C22.4277 17.4929 22.2784 17.5696 22.1857 17.6991C22.0931 17.8286 22.0687 17.9947 22.12 18.1452C22.6179 19.6051 23.9888 20.586 25.5312 20.586C26.9083 20.586 28.1361 19.8213 28.7463 18.6113H32.0137V25.703H11.6812C11.4088 25.703 11.188 25.9238 11.188 26.1962C11.188 26.4686 11.4088 26.6894 11.6812 26.6894H32.0137V27.6122C32.0137 28.3918 31.3795 29.026 30.5999 29.026H2.40007C1.62054 29.026 0.986331 28.3918 0.986331 27.6122V26.6894H9.70852C9.98088 26.6894 10.2017 26.4686 10.2017 26.1962C10.2017 25.9238 9.98088 25.703 9.70852 25.703H0.986331V18.6111H4.25365C4.86386 19.8212 6.09158 20.5858 7.46876 20.5858C9.01125 20.5858 10.3821 19.6049 10.8799 18.1451C10.9312 17.9945 10.9068 17.8284 10.8142 17.699C10.7216 17.5696 10.5722 17.4928 10.4131 17.4928H7.60454L7.3621 16.986L7.59896 16.5108H10.4268C10.5847 16.5108 10.7331 16.4352 10.8258 16.3074C10.9186 16.1796 10.9446 16.0151 10.8957 15.8649C10.4111 14.377 9.03394 13.3773 7.46869 13.3773C6.11893 13.3773 4.9016 14.1211 4.28133 15.2979H0.986331V9.08218V7.88477C0.986331 7.10524 1.62054 6.47103 2.40007 6.47103H20.9866C21.259 6.47103 21.4797 6.25023 21.4797 5.97787C21.4797 5.70551 21.259 5.4847 20.9866 5.4847H17.2187V5.38771C17.2187 4.06432 16.142 2.98764 14.8186 2.98764H2.40007C1.07668 2.98764 0 4.06432 0 5.38771V27.612C0 28.9354 1.07668 30.0121 2.40007 30.0121H30.5999C31.9233 30.0121 33 28.9354 33 27.612V7.8849C33 6.56151 31.9233 5.48483 30.5999 5.48483ZM4.59413 16.2844C4.79357 16.2844 4.97334 16.1643 5.04969 15.9801C5.45678 14.9982 6.40628 14.3638 7.46876 14.3638C8.36053 14.3638 9.16821 14.8105 9.64493 15.5246H7.29385C7.10684 15.5246 6.93594 15.6304 6.8525 15.7977L6.37203 16.7616C6.30423 16.8977 6.30292 17.0574 6.36854 17.1945L6.84901 18.1988C6.93095 18.3701 7.10395 18.4791 7.29392 18.4791H9.61633C9.1354 19.169 8.33982 19.5996 7.46883 19.5996C6.38491 19.5996 5.4283 18.9473 5.03187 17.9378C4.95776 17.749 4.77562 17.6249 4.57283 17.6249H0.986331V16.2844H4.59413V16.2844ZM2.40007 3.9741H14.8186C15.5982 3.9741 16.2324 4.60831 16.2324 5.38784V5.48483H2.40007C1.87179 5.48483 1.38316 5.65678 0.986331 5.94709V5.38784C0.986331 4.60831 1.62054 3.9741 2.40007 3.9741ZM28.4272 17.6248C28.2244 17.6248 28.0423 17.7489 27.9683 17.9377C27.5718 18.9472 26.6152 19.5995 25.5312 19.5995C24.6603 19.5995 23.8647 19.169 23.3837 18.4791H25.7061C25.896 18.4791 26.0691 18.3701 26.151 18.1988L26.6316 17.1944C26.6972 17.0573 26.6959 16.8976 26.628 16.7616L26.1475 15.7976C26.0641 15.6303 25.8932 15.5245 25.7061 15.5245H23.3551C23.8318 14.8104 24.6395 14.3637 25.5312 14.3637C26.5937 14.3637 27.5433 14.9981 27.9502 15.98C28.0267 16.1642 28.2064 16.2844 28.4059 16.2844H32.0137V17.6248H28.4272Z" fill="black"/>
<rect x="0.966797" y="8.57227" width="29.584" height="13.9219" fill="#FEE45A"/>
<rect x="30.5508" y="8.57227" width="1.48242" height="13.9219" fill="#FED402"/>
</g>
<defs>
<clipPath id="clip0">
<rect width="33" height="33" fill="white"/>
</clipPath>
</defs>
</svg>
