<svg width="38" height="34" viewBox="0 0 38 34" fill="none" xmlns="http://www.w3.org/2000/svg">
<rect width="38" height="34" fill="white"/>
<rect width="38" height="34" rx="6" fill="#272E2E"/>
<g clip-path="url(#clip0)">
<path d="M30.8975 6.68C30.7043 6.23759 30.3699 6.01635 29.8928 6.01611H8.10671C7.6302 6.01611 7.29534 6.23759 7.10242 6.68C6.90962 7.14506 6.98897 7.54246 7.34083 7.87142L15.7322 16.2625V24.5345C15.7322 24.8299 15.84 25.0849 16.0555 25.3008L20.4126 29.6578C20.617 29.8732 20.8722 29.9814 21.1787 29.9814C21.3147 29.9814 21.4565 29.9528 21.6041 29.8961C22.0468 29.7031 22.2682 29.3684 22.2682 28.8919V16.2626L30.6592 7.87148C31.0112 7.54252 31.0904 7.14524 30.8975 6.68Z" fill="#AFEA7D"/>
<path d="M19.4137 8.216V14H18.3337V11.472H15.6177V14H14.5377V8.216H15.6177V10.704H18.3337V8.216H19.4137ZM23.4157 10.304C23.4157 10.3733 23.4037 10.4413 23.3797 10.508C23.3557 10.5747 23.3237 10.6293 23.2837 10.672L21.3357 13.24H23.3557V14H20.1877V13.588C20.1877 13.5427 20.1983 13.4893 20.2197 13.428C20.241 13.364 20.273 13.304 20.3157 13.248L22.2837 10.652H20.3037V9.896H23.4157V10.304Z" fill="#AFEA7D"/>
</g>
<defs>
<clipPath id="clip0">
<rect width="24" height="24" fill="white" transform="translate(7 6)"/>
</clipPath>
</defs>
</svg>
