<?xml version="1.0" encoding="utf-8"?>
<!-- Generator: Adobe Illustrator 24.0.0, SVG Export Plug-In . SVG Version: 6.00 Build 0)  -->
<svg version="1.1" id="Capa_1" xmlns="http://www.w3.org/2000/svg" xmlns:xlink="http://www.w3.org/1999/xlink" x="0px" y="0px"
	 viewBox="0 0 65 62" style="enable-background:new 0 0 65 62;" xml:space="preserve">
<style type="text/css">
	.st0{fill:#FCFCFC;}
</style>
<path class="st0" d="M33.8,0c-1,0-1.8,0.8-1.8,1.8v3.9c0,1,0.8,1.8,1.8,1.8c1,0,1.8-0.8,1.8-1.8V1.8C35.6,0.8,34.8,0,33.8,0z"/>
<path class="st0" d="M33.8,54.5c-1,0-1.8,0.8-1.8,1.8v3.9c0,1,0.8,1.8,1.8,1.8c1,0,1.8-0.8,1.8-1.8v-3.9
	C35.6,55.3,34.8,54.5,33.8,54.5z"/>
<path class="st0" d="M17.3,11.9l-2.7-2.7c-0.7-0.7-1.9-0.7-2.6,0c-0.7,0.7-0.7,1.9,0,2.6l2.7,2.7c0.4,0.4,0.8,0.5,1.3,0.5
	s0.9-0.2,1.3-0.5C18,13.8,18,12.6,17.3,11.9z"/>
<path class="st0" d="M55.7,50.3l-2.7-2.7c-0.7-0.7-1.9-0.7-2.6,0c-0.7,0.7-0.7,1.9,0,2.6l2.7,2.7c0.4,0.4,0.8,0.5,1.3,0.5
	c0.5,0,0.9-0.2,1.3-0.5C56.4,52.1,56.4,51,55.7,50.3z"/>
<path class="st0" d="M8.5,29.2H4.6c-1,0-1.8,0.8-1.8,1.8s0.8,1.8,1.8,1.8h3.9c1,0,1.8-0.8,1.8-1.8S9.5,29.2,8.5,29.2z"/>
<path class="st0" d="M63,29.2h-3.9c-1,0-1.8,0.8-1.8,1.8s0.8,1.8,1.8,1.8H63c1,0,1.8-0.8,1.8-1.8S64,29.2,63,29.2z"/>
<path class="st0" d="M17.3,47.5c-0.7-0.7-1.9-0.7-2.6,0L12,50.3c-0.7,0.7-0.7,1.9,0,2.6c0.4,0.4,0.8,0.5,1.3,0.5
	c0.5,0,0.9-0.2,1.3-0.5l2.7-2.7C18,49.4,18,48.2,17.3,47.5z"/>
<path class="st0" d="M55.7,9.2c-0.7-0.7-1.9-0.7-2.6,0l-2.7,2.7c-0.7,0.7-0.7,1.9,0,2.6c0.4,0.4,0.8,0.5,1.3,0.5
	c0.5,0,0.9-0.2,1.3-0.5l2.7-2.7C56.4,11,56.4,9.9,55.7,9.2z"/>
<path class="st0" d="M33.8,11.7c-10.6,0-19.3,8.6-19.3,19.3s8.6,19.3,19.3,19.3S53.1,41.6,53.1,31S44.4,11.7,33.8,11.7z M35.6,46.5
	v-31C43.4,16.4,49.4,23,49.4,31S43.4,45.6,35.6,46.5z"/>
</svg>
