<?xml version="1.0" encoding="utf-8"?>
<!-- Generator: Adobe Illustrator 24.0.0, SVG Export Plug-In . SVG Version: 6.00 Build 0)  -->
<svg version="1.1" id="Capa_1" xmlns="http://www.w3.org/2000/svg" xmlns:xlink="http://www.w3.org/1999/xlink" x="0px" y="0px"
	 viewBox="0 0 65 62" style="enable-background:new 0 0 65 62;" xml:space="preserve">
<style type="text/css">
	.st0{fill:#FFFFFF;}
</style>
<path class="st0" d="M34.8,23.2H18.3c-1.8,0-3.2,1.5-3.2,3.2c0,1.8,1.5,3.2,3.2,3.2h16.5c1.8,0,3.2-1.5,3.2-3.2
	C38.1,24.6,36.6,23.2,34.8,23.2z"/>
<path class="st0" d="M48,39c2.5-3.9,3.9-8.5,3.9-13.4c0-13.9-11.3-25.3-25.3-25.3c-14,0-25.3,11.3-25.3,25.3s11.3,25.3,25.3,25.3
	c5.4,0,10.4-1.7,14.4-4.5l14.2,14.2c1,1,2.3,1.5,3.6,1.5s2.6-0.5,3.6-1.5c2-2,2-5.2,0-7.2L48,39z M42,33c-0.7,1.5-1.7,3-2.9,4.2l0,0
	c-0.3,0.3-0.5,0.6-0.9,0.8c0,0-0.1,0-0.1,0.1c-0.9,0.8-2,1.6-3,2.2c-2.5,1.5-5.4,2.3-8.5,2.3c-9.4,0-17.1-7.7-17.1-17.1
	c0-9.4,7.7-17.1,17.1-17.1c9.4,0,17.1,7.7,17.1,17.1C43.7,28.3,43,30.8,42,33z"/>
</svg>
